<svg xmlns="http://www.w3.org/2000/svg" width="100" height="100"><g transform="translate(94.295 -285.058)"><rect width="63.214" height="40.714" x="-73.879" y="317.729" fill="#f9f9f9" fill-rule="evenodd" stroke="#000" stroke-linecap="round" stroke-linejoin="round" stroke-width=".8" rx="3.599" ry="3.599"/><g fill="none" transform="matrix(.1226 0 0 .1226 -60.44 324.487)"><path fill="#479951" d="m 224.53501,116.49059 0.18617,0 0.35981,0 0.35982,0 0.36011,0 0.35981,0 0.35981,0 0.36011,0 0.35982,0 0.36011,0 0.35981,0 0.35981,0 0.36011,0 0.35982,0 0.35981,0 0.36011,0 0.35981,0 0.35982,0 0.36011,0 0.35981,0 0.35981,0 0.36011,0 0.35982,0 0.35981,0 0.36011,0 0.35981,0 0.35982,0 0.36011,0 0.35981,0 0.35981,0 0.36011,0 0.35982,0 0.36011,0 0.35981,0 0.35981,0 0.36011,0 0.35982,0 0.35981,0 0.36011,0 0.35981,0 0.35982,0 0.36011,0 0.35981,0 0.35981,0 0.36011,0 0.35982,0 0.35981,0 0.36011,0 0.35981,0 0.35982,0 0.36011,0 0.35981,0 0.35981,0 0.36011,0 0.35982,0 0.35981,0 0.36011,0 0.35981,0 0.36011,0 0.35982,0 0.35981,0 0.29955,0 0.0606,0.001 c 0.11099,0.003 0.23212,0.008 0.35981,0.0146 0.11547,0.006 0.2363,0.0143 0.35982,0.0236 0.11844,0.009 0.23927,0.0188 0.36011,0.0298 0.12113,0.011 0.24166,0.0232 0.35981,0.0364 0.12382,0.0137 0.24495,0.0283 0.35981,0.0438 0.12889,0.0173 0.25032,0.0352 0.36011,0.054 0.0791,0.0134 0.15216,0.0271 0.2175,0.0411 l 0.14232,0.0322 c 0.12053,0.028 0.24047,0.0584 0.35981,0.0915 0.12083,0.0334 0.24077,0.0686 0.36011,0.10672 0.12083,0.0384 0.24077,0.0793 0.35981,0.12251 0.12084,0.0438 0.24077,0.09 0.35982,0.13862 0.12113,0.0495 0.24107,0.10164 0.36011,0.1559 0.12113,0.0554 0.24107,0.11297 0.35981,0.17348 0.12113,0.0614 0.24107,0.1258 0.35981,0.19257 0.12143,0.0683 0.24167,0.1398 0.36011,0.21343 0.12143,0.0757 0.24167,0.15352 0.35982,0.2346 0.12172,0.0835 0.24196,0.16932 0.35981,0.25815 0.12203,0.0921 0.24226,0.1872 0.36011,0.28527 0.12232,0.10195 0.24226,0.20717 0.35981,0.31508 0.12292,0.11298 0.24316,0.22834 0.36011,0.34757 0.12352,0.1255 0.24316,0.25517 0.35982,0.38782 0.12381,0.141 0.24375,0.28587 0.35981,0.43461 0.12501,0.16008 0.24495,0.32433 0.36011,0.49305 0.12591,0.18481 0.24614,0.3744 0.35981,0.56905 0.12829,0.21939 0.24823,0.44535 0.35982,0.67726 0.13246,0.27484 0.253,0.55803 0.36011,0.84926 0.1441,0.39139 0.26464,0.79709 0.35981,1.21591 0.16469,0.72585 0.2533,1.49045 0.2533,2.28873 0,0.80216 -0.0883,1.57005 -0.2533,2.29828 -0.0952,0.42001 -0.21571,0.8269 -0.35981,1.21889 -0.10741,0.29213 -0.22765,0.57561 -0.36011,0.85135 -0.11159,0.23191 -0.23153,0.45816 -0.35982,0.67785 -0.11367,0.19495 -0.23361,0.38454 -0.35981,0.56935 -0.11516,0.16872 -0.2354,0.33327 -0.36011,0.49334 -0.11606,0.14875 -0.236,0.29332 -0.35981,0.43432 -0.11666,0.13265 -0.2366,0.26202 -0.35982,0.38752 -0.11695,0.11923 -0.23748,0.23459 -0.36011,0.34727 -0.11755,0.10761 -0.23749,0.21195 -0.35981,0.31359 -0.11785,0.0978 -0.23779,0.19287 -0.36011,0.28468 -0.11785,0.0885 -0.23809,0.17408 -0.35981,0.25725 -0.11815,0.0808 -0.23839,0.15859 -0.35982,0.2337 -0.11844,0.0733 -0.23868,0.14428 -0.36011,0.21224 -0.11844,0.0665 -0.23838,0.13027 -0.35981,0.19138 -0.11874,0.0599 -0.23868,0.11745 -0.35981,0.17259 -0.11904,0.054 -0.23898,0.10523 -0.36011,0.15441 -0.11905,0.048 -0.23898,0.0942 -0.35982,0.13742 -0.11904,0.0426 -0.23898,0.0829 -0.35981,0.12073 -0.11934,0.0376 -0.23928,0.0724 -0.36011,0.10523 -0.11934,0.0322 -0.23928,0.0623 -0.35981,0.09 l -0.14232,0.0319 c -0.0653,0.0149 -0.13843,0.0295 -0.2175,0.0435 -0.10979,0.0194 -0.23122,0.0379 -0.36011,0.0554 -0.11486,0.0155 -0.23599,0.0304 -0.35981,0.0441 -0.11815,0.0131 -0.23868,0.025 -0.35981,0.0358 -0.12084,0.011 -0.24167,0.0209 -0.36011,0.0292 -0.12352,0.009 -0.24435,0.0167 -0.35982,0.0227 -0.12769,0.007 -0.24882,0.0113 -0.35981,0.014 l -0.19303,0.002 -0.16708,0 -0.35981,0 -0.35982,0 -0.36011,0 -0.35981,0 -0.36011,0 -0.35981,0 -0.35982,0 -0.36011,0 -0.35981,0 -0.35981,0 -0.36011,0 -0.35982,0 -0.35981,0 -0.36011,0 -0.35981,0 -0.35982,0 -0.36011,0 -0.35981,0 -0.35981,0 -0.36011,0 -0.35982,0 -0.35981,0 -0.36011,0 -0.35981,0 -0.35982,0 -0.36011,0 -0.35981,0 -0.35981,0 -0.36011,0 -0.35982,0 -0.36011,0 -0.35981,0 -0.35981,0 -0.36011,0 -0.35982,0 -0.35981,0 -0.36011,0 -0.35981,0 -0.35982,0 -0.36011,0 -0.35981,0 -0.35981,0 -0.36011,0 -0.35982,0 -0.35981,0 -0.36011,0 -0.35981,0 -0.35982,0 -0.36011,0 -0.35981,0 -0.35981,0 -0.36011,0 -0.35982,0 -0.36011,0 -0.35981,0 -0.35981,0 -0.36011,0 -0.35982,0 -0.35981,0 -0.18617,0 0,-19.65845 0,0 0,0 0,0 z m 28.98074,-22.249147 c 0.1447,0.659971 0.22227,1.358695 0.22227,2.094679 0,0.734792 -0.0776,1.433218 -0.22227,2.092593 -0.0931,0.423586 -0.21392,0.830777 -0.36011,1.221275 -0.10681,0.284975 -0.22705,0.56071 -0.35982,0.8269 -0.11128,0.22327 -0.23152,0.43998 -0.35981,0.64954 -0.11367,0.18541 -0.23421,0.36546 -0.36011,0.54014 -0.11516,0.15918 -0.2351,0.31359 -0.35981,0.46353 -0.11606,0.13951 -0.2357,0.27484 -0.35982,0.4063 -0.11665,0.12341 -0.23659,0.24294 -0.35981,0.3589 -0.11725,0.11029 -0.23719,0.21731 -0.36011,0.32074 -0.11755,0.099 -0.23749,0.19466 -0.35981,0.28736 -0.11785,0.0894 -0.23779,0.17558 -0.35981,0.25904 -0.11815,0.0805 -0.23839,0.15799 -0.36012,0.23281 -0.11844,0.0727 -0.23838,0.14279 -0.35981,0.20986 -0.11844,0.0656 -0.23838,0.12877 -0.35981,0.18898 -0.11875,0.059 -0.23898,0.11537 -0.36011,0.16932 -0.11875,0.0528 -0.23868,0.10284 -0.35982,0.15054 -0.11904,0.0468 -0.23898,0.0912 -0.35981,0.13324 -0.11904,0.0414 -0.23898,0.0805 -0.35981,0.11685 -0.11934,0.0361 -0.23928,0.0701 -0.36011,0.10135 -0.11904,0.031 -0.23898,0.0596 -0.35981,0.0859 -0.11905,0.0262 -0.23928,0.0495 -0.35982,0.0709 l -0.0874,0.0158 c -0.0701,0.0122 -0.1632,0.0259 -0.2727,0.0396 -0.10621,0.0134 -0.22824,0.0274 -0.35981,0.0405 -0.11397,0.0116 -0.2351,0.023 -0.35981,0.0334 -0.11785,0.01 -0.23898,0.0185 -0.36012,0.0262 -0.12083,0.008 -0.24196,0.0143 -0.35981,0.0191 -0.12471,0.005 -0.24584,0.008 -0.35981,0.009 l -0.057,3e-4 -0.30282,0 -0.36011,0 -0.35982,0 -0.35981,0 -0.36011,0 -0.35981,0 -0.35982,0 -0.35981,0 -0.36011,0 -0.35981,0 -0.35982,0 -0.36011,0 -0.35981,0 -0.35981,0 -0.36011,0 -0.35982,0 -0.35981,0 -0.35981,0 -0.36011,0 -0.35982,0 -0.35981,0 -0.36011,0 -0.35981,0 -0.35982,0 -0.36011,0 -0.35981,0 -0.35981,0 -0.35981,0 -0.36012,0 -0.35981,0 -0.35981,0 -0.36011,0 -0.35981,0 -0.35982,0 -0.35981,0 -0.36011,0 -0.35981,0 -0.35982,0 -0.36011,0 -0.35981,0 -0.35981,0 -0.36011,0 -0.35982,0 -0.35981,0 -0.35981,0 -0.36011,0 -0.35982,0 -0.35981,0 -0.36011,0 -0.35981,0 -0.35982,0 -0.36011,0 -0.35981,0 -0.35981,0 -0.18856,0 0,-18.140871 0.18856,0 0.35981,0 0.35981,0 0.36011,0 0.35982,0 0.35981,0 0.36011,0 0.35981,0 0.35982,0 0.36011,0 0.35981,0 0.35981,0 0.35982,0 0.36011,0 0.35981,0 0.35981,0 0.36011,0 0.35982,0 0.35981,0 0.36011,0 0.35981,0 0.35982,0 0.35981,0 0.36011,0 0.35981,0 0.35981,0 0.36012,0 0.35981,0 0.35981,0 0.35981,0 0.36011,0 0.35982,0 0.35981,0 0.36011,0 0.35981,0 0.35982,0 0.36011,0 0.35981,0 0.35981,0 0.35982,0 0.36011,0 0.35981,0 0.35981,0 0.36011,0 0.35982,0 0.35981,0 0.36011,0 0.35981,0 0.35982,0 0.35981,0 0.36011,0 0.35981,0 0.35982,0 0.36011,0 0.35981,0 0.15156,0 0.20825,0.0069 c 0.11785,0.0048 0.23898,0.01192 0.35981,0.01967 0.12114,0.0078 0.24227,0.01669 0.36012,0.02623 0.12471,0.01014 0.24584,0.02146 0.35981,0.03249 0.13157,0.01282 0.2536,0.02564 0.35981,0.03786 0.1095,0.01252 0.20258,0.02444 0.2727,0.03428 l 0.0874,0.0158 c 0.12054,0.02176 0.24077,0.04591 0.35982,0.07244 0.12083,0.02653 0.24077,0.05544 0.35981,0.08674 0.12083,0.03189 0.24077,0.06558 0.36011,0.101947 0.12083,0.03696 0.24077,0.07631 0.35981,0.117745 0.12083,0.04233 0.24077,0.08704 0.35981,0.134141 0.12114,0.04799 0.24107,0.09867 0.35982,0.15143 0.12113,0.05425 0.24136,0.110591 0.36011,0.169613 0.12143,0.06051 0.24137,0.123409 0.35981,0.188989 0.12143,0.06737 0.24137,0.137718 0.35981,0.210452 0.12173,0.07482 0.24197,0.152324 0.36012,0.233106 0.12202,0.08317 0.24196,0.17021 0.35981,0.259637 0.12232,0.09271 0.24226,0.188393 0.35981,0.287358 0.12292,0.103736 0.24286,0.21075 0.36011,0.321044 0.12322,0.115957 0.24316,0.235491 0.35981,0.3589 0.12412,0.13116 0.24376,0.266791 0.35982,0.406297 0.12471,0.149939 0.24465,0.304648 0.35981,0.463828 0.1259,0.174681 0.24644,0.354429 0.36011,0.54014 0.12829,0.209557 0.24853,0.426269 0.35981,0.649538 0.13277,0.266195 0.25301,0.542524 0.35982,0.827498 0.14619,0.390498 0.26702,0.797988 0.36011,1.22217 0,0 -0.0931,-0.424182 0,0 l 0,0 0,0 z m 44.63438,-94.06741116 0.14769,0 -3e-4,186.31199816 c 0,1.11307 -0.0516,2.21422 -0.14739,3.30254 -0.0841,0.95777 -0.20467,1.9051 -0.36011,2.8408 -0.10442,0.62867 -0.22436,1.25168 -0.35981,1.86933 -0.11009,0.50228 -0.23003,1.00128 -0.36011,1.49581 -0.11248,0.42687 -0.23272,0.85045 -0.35982,1.27106 -0.11486,0.38036 -0.23361,0.75894 -0.36011,1.13423 -0.11486,0.34012 -0.23569,0.67756 -0.35981,1.01351 -0.11576,0.31269 -0.23629,0.6233 -0.36011,0.93213 -0.11636,0.29004 -0.2363,0.57799 -0.35981,0.86446 -0.11696,0.27126 -0.23719,0.54103 -0.36012,0.80901 -0.11725,0.25517 -0.23719,0.50914 -0.35981,0.76103 -0.11785,0.24145 -0.23749,0.48201 -0.36011,0.72048 -0.11755,0.22864 -0.23779,0.45638 -0.35981,0.68203 -0.11755,0.21731 -0.23839,0.43223 -0.36011,0.64686 -0.11785,0.20777 -0.23809,0.41404 -0.35982,0.61913 -0.11844,0.19972 -0.23838,0.39825 -0.36011,0.59558 -0.11874,0.19197 -0.23808,0.38365 -0.36011,0.57353 -0.11815,0.18362 -0.23898,0.36576 -0.36011,0.547 -0.11815,0.17676 -0.23868,0.35144 -0.35981,0.52612 -0.11875,0.17141 -0.23868,0.34221 -0.36011,0.51153 -0.11875,0.16514 -0.23839,0.32968 -0.35981,0.49304 -0.11845,0.15918 -0.23928,0.31627 -0.36012,0.47337 -0.11904,0.1547 -0.23868,0.30911 -0.35981,0.46174 -0.11904,0.14994 -0.23868,0.29868 -0.36011,0.44654 -0.11874,0.14457 -0.23928,0.28795 -0.35981,0.43074 -0.11964,0.14129 -0.23839,0.28318 -0.36011,0.42269 -0.11875,0.13622 -0.23928,0.27066 -0.35982,0.4051 -0.11904,0.13295 -0.23928,0.265 -0.36011,0.39616 -0.11934,0.12938 -0.23868,0.25845 -0.35981,0.38603 -0.11875,0.1252 -0.23958,0.24831 -0.36011,0.37202 -0.11964,0.12281 -0.23868,0.24622 -0.36011,0.36724 -0.11875,0.11835 -0.23958,0.2343 -0.35982,0.35115 -0.11964,0.11596 -0.23898,0.23222 -0.36011,0.34668 -0.11904,0.11238 -0.23927,0.22357 -0.35981,0.33446 -0.11934,0.11 -0.23958,0.21939 -0.36011,0.3276 -0.11934,0.10702 -0.23898,0.21343 -0.35981,0.31896 -0.11934,0.10433 -0.23958,0.20747 -0.36011,0.31031 -0.11964,0.10195 -0.23898,0.2036 -0.35982,0.30405 -0.11904,0.099 -0.23957,0.19644 -0.36011,0.29392 -0.11964,0.0969 -0.23898,0.19376 -0.35981,0.28944 -0.11904,0.0942 -0.23988,0.18631 -0.36011,0.27902 -0.11964,0.0921 -0.23898,0.18451 -0.35981,0.27543 -0.11905,0.0894 -0.23988,0.17707 -0.36012,0.2653 -0.11993,0.0876 -0.23927,0.17617 -0.36011,0.26262 -0.11904,0.0853 -0.23957,0.16812 -0.35981,0.25189 -0.11994,0.0835 -0.23928,0.16752 -0.36011,0.2495 -0.11934,0.0811 -0.23958,0.16007 -0.35981,0.23996 -0.11964,0.0793 -0.23928,0.15888 -0.36012,0.23698 -0.11934,0.0772 -0.23957,0.15292 -0.35981,0.22864 -0.11964,0.0754 -0.23957,0.15083 -0.36011,0.22476 -0.11934,0.0733 -0.23928,0.14576 -0.35981,0.2179 l -0.36011,0.21284 c -0.11964,0.0697 -0.23928,0.1395 -0.35982,0.20806 -0.11934,0.068 -0.23987,0.13444 -0.36011,0.20121 -0.11993,0.0665 -0.23927,0.13355 -0.35981,0.19853 -0.11934,0.0644 -0.23987,0.12669 -0.36011,0.18989 -0.12024,0.0632 -0.23928,0.12788 -0.36011,0.18988 -0.11904,0.0611 -0.23988,0.11924 -0.35981,0.17915 -0.11994,0.0599 -0.23928,0.12013 -0.36011,0.17856 -0.11935,0.0578 -0.23988,0.11446 -0.35982,0.1711 l -0.36011,0.16812 -0.35981,0.16306 c -0.11964,0.0534 -0.23988,0.10523 -0.36011,0.15739 -0.11994,0.0519 -0.23928,0.10523 -0.35982,0.1559 -0.11934,0.0504 -0.23987,0.0978 -0.36011,0.14696 -0.11993,0.0489 -0.23928,0.0993 -0.35981,0.14696 -0.11964,0.0474 -0.23988,0.0924 -0.36011,0.13861 -0.11964,0.0459 -0.23928,0.0918 -0.35981,0.13653 l -0.36011,0.13265 c -0.11964,0.0432 -0.24018,0.0849 -0.36012,0.12668 -0.11993,0.042 -0.23898,0.0856 -0.35981,0.12639 -0.11934,0.0402 -0.24017,0.0778 -0.36011,0.11686 l -0.35981,0.11655 c -0.11964,0.0379 -0.23988,0.0742 -0.36011,0.11089 l -0.35982,0.10701 c -0.11993,0.0352 -0.23957,0.0713 -0.36011,0.10523 -0.11934,0.0337 -0.23987,0.065 -0.35981,0.0975 -0.11994,0.0325 -0.23958,0.0659 -0.36011,0.0972 l -0.35981,0.0906 -0.36012,0.0879 -0.35981,0.0856 c -0.11964,0.0274 -0.23987,0.0522 -0.36011,0.0784 -0.11994,0.0262 -0.23958,0.0534 -0.36011,0.0784 l -0.35981,0.0718 -0.36011,0.0689 c -0.11994,0.0224 -0.23958,0.0465 -0.35982,0.0677 -0.11964,0.0212 -0.24017,0.0396 -0.36011,0.0596 l -0.35981,0.0596 -0.36011,0.0539 -0.35981,0.0504 c -0.12024,0.0164 -0.23958,0.0349 -0.36012,0.0504 -0.11963,0.0152 -0.24017,0.0271 -0.35981,0.0411 -0.11994,0.014 -0.23987,0.0283 -0.36011,0.0411 -0.11994,0.0128 -0.23958,0.0259 -0.35981,0.0376 -0.11964,0.0116 -0.24018,0.0215 -0.36011,0.0319 -0.12024,0.0104 -0.23988,0.0224 -0.36011,0.0319 -0.11964,0.009 -0.23988,0.0167 -0.35982,0.025 l -0.36011,0.0226 c -0.11994,0.007 -0.23958,0.0158 -0.35981,0.0218 -0.11964,0.006 -0.24017,0.009 -0.36011,0.0137 l -0.35981,0.0137 -0.36011,0.009 c -0.11964,0.003 -0.23988,0.003 -0.35982,0.005 l -0.36011,0.004 -0.0743,8.9e-4 -0.28552,0 -0.36011,0 -0.35982,0 -0.36011,0 -0.36011,0 -0.35981,0 -0.36011,0 -0.35982,0 -0.36011,0 -0.35981,0 -0.36011,0 -0.35981,0 -0.36011,0 -0.35982,0 -0.36011,0 -0.36011,0 -0.35981,0 -0.36011,0 -0.35982,0 -0.36011,0 -0.35981,0 -0.36011,0 -0.35981,0 -0.36011,0 -0.35982,0 -0.36011,0 -0.35981,0 -0.36011,0 -0.36011,0 -0.35982,0 -0.36011,0 -0.35981,0 -0.36011,0 -0.35981,0 -0.36011,0 -0.35982,0 -0.36011,0 -0.35981,0 -0.36011,0 -0.35982,0 -0.36011,0 -0.36011,0 -0.35981,0 -0.36011,0 -0.35981,0 -0.36012,0 -0.35981,0 -0.36011,0 -0.35981,0 -0.36011,0 -0.35982,0 -0.36011,0 -0.35981,0 -0.36011,0 -0.36011,0 -0.35981,0 -0.36012,0 -0.35981,0 -0.36011,0 -0.35981,0 -0.36011,0 -0.35981,0 -0.36012,0 -0.35981,0 -0.36011,0 -0.35981,0 -0.36011,0 -0.36012,0 -0.35981,0 -0.36011,0 -0.35981,0 -0.36011,0 -0.35982,0 -0.36011,0 -0.35981,0 -0.36011,0 -0.35981,0 -0.36011,0 -0.35982,0 -0.36011,0 -0.36011,0 -0.35981,0 -0.36011,0 -0.35982,0 -0.36011,0 -0.35981,0 -0.36011,0 -0.35981,0 -0.36012,0 -0.35981,0 -0.36011,0 -0.35981,0 -0.36011,0 -0.36011,0 -0.35982,0 -0.36011,0 -0.35981,0 -0.36011,0 -0.35981,0 -0.36012,0 -0.35981,0 -0.36011,0 -0.35981,0 -0.36011,0 -0.35982,0 -0.36011,0 -0.36011,0 -0.35981,0 -0.36011,0 -0.35981,0 -0.36012,0 -0.35981,0 -0.36011,0 -0.35981,0 -0.36011,0 -0.35982,0 -0.36011,0 -0.35981,0 -0.36011,0 -0.36011,0 -0.35982,0 -0.36011,0 -0.35981,0 -0.36011,0 -0.35981,0 -0.36011,0 -0.35982,0 -0.36011,0 -0.35981,0 -0.36011,0 -0.35981,0 -0.36012,0 -0.36011,0 -0.35981,0 -0.36011,0 -0.35981,0 -0.36011,0 -0.35982,0 -0.36011,0 -0.35981,0 -0.36011,0 -0.35981,0 -0.36012,0 -0.35981,0 -0.36011,0 -0.36011,0 -0.35981,0 -0.36011,0 -0.35982,0 -0.36011,0 -0.77661,0 0,-75.96588 0.77661,0 0.36011,0 0.35982,0 0.36011,0 0.35981,0 0.36011,0 0.36011,0 0.35981,0 0.36012,0 0.35981,0 0.36011,0 0.35981,0 0.36011,0 0.35982,0 0.36011,0 0.35981,0 0.36011,0 0.35981,0 0.36011,0 0.36012,0 0.35981,0 0.36011,0 0.35981,0 0.36011,0 0.35982,0 0.36011,0 0.35981,0 0.36011,0 0.35981,0 0.36011,0 0.35982,0 0.36011,0 0.36011,0 0.35981,0 0.36011,0 0.35982,0 0.36011,0 0.35981,0 0.36011,0 0.35981,0 0.36012,0 0.35981,0 0.36011,0 0.35981,0 0.36011,0 0.36011,0 0.35982,0 0.36011,0 0.35981,0 0.36011,0 0.35981,0 0.36012,0 0.35981,0 0.36011,0 0.35981,0 0.36011,0 0.35982,0 0.36011,0 0.36011,0 0.35981,0 0.36011,0 0.35981,0 0.36012,0 0.35981,0 0.36011,0 0.35981,0 0.36011,0 0.35982,0 0.36011,0 0.35981,0 0.36011,0 0.36011,0 0.35982,0 0.36011,0 0.35981,0 0.36011,0 0.35981,0 0.36011,0 0.35982,0 0.36011,0 0.35981,0 0.36011,0 0.35981,0 0.36012,0 0.36011,0 0.35981,0 0.36011,0 0.35981,0 0.36012,0 0.35981,0 0.36011,0 0.35981,0 0.36011,0 0.35981,0 0.36012,0 0.35981,0 0.36011,0 0.36011,0 0.35981,0 0.36011,0 0.35982,0 0.36011,0 0.35981,0 0.36011,0 0.35981,0 0.36012,0 0.35981,0 0.36011,0 0.35981,0 0.36011,0 0.36011,0 0.35982,0 0.36011,0 0.35981,0 0.36011,0 0.35982,0 0.36011,0 0.35981,0 0.36011,0 0.35981,0 0.36011,0 0.35982,0 0.36011,0 0.36011,0 0.35981,0 0.36011,0 0.35982,0 0.36011,0 0.35981,0 0.36011,0 0.35981,0 0.36011,0 0.35982,0 0.36011,0 0.35981,0 0.36011,0 0.36011,0 0.35982,0 0.36011,0 0.35981,0 0.36011,0 0.35981,0 0.36011,0 0.35982,0 0.36011,0 0.35981,0 0.36011,0 0.36011,0 0.35982,0 0.36011,0 0.35981,0 0.36011,0 0.35982,0 0.36011,0 0.35981,0 0.36011,0 0.35981,0 0.36011,0 0.35982,0 0.19094,0 0.16917,-0.001 0.36011,-0.003 0.35981,-0.007 c 0.12024,-0.003 0.24047,-0.005 0.36011,-0.009 0.12054,-0.004 0.23988,-0.01 0.35981,-0.0152 l 0.36012,-0.0167 0.35981,-0.0218 0.36011,-0.0247 0.35981,-0.028 0.36011,-0.0331 c 0.11994,-0.0113 0.24048,-0.0223 0.35982,-0.0349 0.12053,-0.0125 0.24017,-0.0268 0.36011,-0.0408 l 0.35981,-0.0438 c 0.12053,-0.0155 0.24047,-0.0304 0.36011,-0.0471 0.12054,-0.0167 0.24017,-0.0352 0.36011,-0.0531 0.12024,-0.0182 0.24047,-0.0361 0.35981,-0.0554 l 0.36012,-0.0605 0.35981,-0.0647 c 0.12023,-0.0224 0.24077,-0.0441 0.36011,-0.0677 0.12053,-0.0238 0.24017,-0.0495 0.35981,-0.0745 l 0.36011,-0.0778 c 0.12024,-0.0268 0.24048,-0.0537 0.35982,-0.0817 0.12083,-0.0283 0.24047,-0.0584 0.36011,-0.0882 0.12023,-0.0298 0.24047,-0.0602 0.35981,-0.0915 0.12024,-0.0316 0.24077,-0.0635 0.36011,-0.0966 0.12054,-0.0331 0.24017,-0.0677 0.35981,-0.10254 0.12054,-0.0349 0.24077,-0.0703 0.36012,-0.10672 l 0.36011,-0.11268 c 0.12083,-0.0385 0.24017,-0.0784 0.35981,-0.11864 0.12053,-0.0405 0.24077,-0.0811 0.36011,-0.12311 0.12053,-0.0423 0.24077,-0.0847 0.35981,-0.12847 0.12113,-0.0444 0.24047,-0.0909 0.36011,-0.13683 0.12054,-0.0465 0.24048,-0.0936 0.35982,-0.14159 0.12053,-0.0486 0.24107,-0.0969 0.36011,-0.14696 0.12083,-0.0507 0.24047,-0.10254 0.35981,-0.155 0.12083,-0.0531 0.24077,-0.10732 0.36011,-0.16217 0.12054,-0.0554 0.24077,-0.11118 0.35982,-0.16812 0.12053,-0.0575 0.24106,-0.11566 0.36011,-0.17498 0.12113,-0.0605 0.24047,-0.12192 0.35981,-0.18422 0.12083,-0.0629 0.24077,-0.12758 0.36011,-0.19256 0.12113,-0.0659 0.24107,-0.13236 0.36011,-0.20002 0.12083,-0.0686 0.24107,-0.13802 0.35981,-0.20866 0.12084,-0.0716 0.24137,-0.14368 0.36011,-0.21731 0.12114,-0.0754 0.24077,-0.15173 0.35982,-0.22894 0.12143,-0.0787 0.24107,-0.15858 0.36011,-0.23936 0.12113,-0.082 0.24107,-0.16544 0.35981,-0.2498 0.12143,-0.0862 0.24137,-0.17319 0.36011,-0.26143 0.12143,-0.09 0.24137,-0.18124 0.35981,-0.27364 0.12143,-0.0948 0.24167,-0.19019 0.36012,-0.28706 0.12143,-0.0993 0.24136,-0.19972 0.35981,-0.30137 0.12173,-0.10434 0.24166,-0.21046 0.36011,-0.31747 0.12173,-0.10999 0.24166,-0.22178 0.35981,-0.33446 0.12203,-0.11625 0.24197,-0.234 0.36011,-0.35323 0.12233,-0.12341 0.24197,-0.24801 0.36012,-0.3744 0.12202,-0.13057 0.24196,-0.26322 0.35981,-0.39706 0.12232,-0.13921 0.24256,-0.28021 0.36011,-0.42299 0.12262,-0.14875 0.24256,-0.29928 0.35981,-0.45161 0.12262,-0.15977 0.24346,-0.32044 0.36011,-0.4841 0.12382,-0.17378 0.24286,-0.35055 0.35982,-0.52881 0.12381,-0.18899 0.24405,-0.38036 0.36011,-0.57412 0.12471,-0.20836 0.24464,-0.41971 0.35981,-0.63374 0.12531,-0.23281 0.24614,-0.4683 0.36011,-0.70766 0.1274,-0.26739 0.24704,-0.53925 0.35981,-0.81469 0.12949,-0.31597 0.25002,-0.63612 0.36011,-0.96223 0.13546,-0.40183 0.2548,-0.8117 0.35982,-1.22873 0.15365,-0.60959 0.27418,-1.23528 0.36011,-1.87618 0.10442,-0.77771 0.15932,-1.57689 0.15932,-2.39813 0,-0.79978 -0.0543,-1.5766 -0.15932,-2.33107 -0.0862,-0.61973 -0.20676,-1.22395 -0.36011,-1.81209 -0.10472,-0.40093 -0.22496,-0.79411 -0.35982,-1.17984 -0.11039,-0.31627 -0.23032,-0.62807 -0.36011,-0.93391 -0.11247,-0.26501 -0.23271,-0.52613 -0.35981,-0.78309 -0.11427,-0.23131 -0.2345,-0.45935 -0.36011,-0.68411 -0.11546,-0.20688 -0.2351,-0.41137 -0.35981,-0.61258 -0.11576,-0.1869 -0.2363,-0.37112 -0.36011,-0.55296 -0.11666,-0.1717 -0.2363,-0.3422 -0.35982,-0.50943 -0.11665,-0.15799 -0.23719,-0.3133 -0.36011,-0.46711 -0.11725,-0.14726 -0.23719,-0.29243 -0.35981,-0.4361 -0.11785,-0.13772 -0.23749,-0.27425 -0.36011,-0.40869 -0.11785,-0.12937 -0.23749,-0.25725 -0.35981,-0.38334 -0.11785,-0.12162 -0.23809,-0.24145 -0.36012,-0.36009 -0.11814,-0.11507 -0.23838,-0.22864 -0.36011,-0.34072 -0.11815,-0.1088 -0.23838,-0.21612 -0.35981,-0.32224 -0.11845,-0.10343 -0.23838,-0.20568 -0.36011,-0.30643 -0.11845,-0.0984 -0.23838,-0.19555 -0.35981,-0.29153 -0.11875,-0.0936 -0.23869,-0.18631 -0.36012,-0.27753 -0.11874,-0.0894 -0.23868,-0.17736 -0.35981,-0.2647 -0.11874,-0.0853 -0.23898,-0.16961 -0.36011,-0.25278 -0.11874,-0.0814 -0.23868,-0.16216 -0.35981,-0.24175 -0.11904,-0.0781 -0.23898,-0.15531 -0.36011,-0.23132 -0.11905,-0.0745 -0.23868,-0.14845 -0.35982,-0.22118 -0.11874,-0.0713 -0.23897,-0.1416 -0.36011,-0.21105 -0.11904,-0.0683 -0.23898,-0.13563 -0.35981,-0.20211 -0.11904,-0.0656 -0.23898,-0.12996 -0.36011,-0.19346 -0.11904,-0.0629 -0.23928,-0.1249 -0.36011,-0.1863 -0.11904,-0.0602 -0.23898,-0.12013 -0.35981,-0.17886 -0.11934,-0.0578 -0.23898,-0.11536 -0.36011,-0.1717 -0.11905,-0.0554 -0.23928,-0.1094 -0.35982,-0.16305 -0.11904,-0.0531 -0.23928,-0.10523 -0.36011,-0.1568 -0.11934,-0.051 -0.23928,-0.10105 -0.35981,-0.15053 -0.11964,-0.0489 -0.23898,-0.0978 -0.36011,-0.14517 -0.11934,-0.0468 -0.23928,-0.093 -0.35982,-0.13832 -0.11934,-0.0447 -0.23957,-0.0879 -0.36011,-0.13145 -0.11934,-0.0429 -0.23928,-0.0847 -0.35981,-0.12639 -0.11964,-0.0411 -0.23928,-0.082 -0.36011,-0.12192 -0.11934,-0.0393 -0.23928,-0.0778 -0.35981,-0.11566 -0.11934,-0.0376 -0.23988,-0.0739 -0.36011,-0.11 l -0.36012,-0.10552 c -0.11964,-0.0343 -0.23927,-0.0686 -0.35981,-0.10135 -0.11934,-0.0325 -0.23987,-0.0638 -0.36011,-0.0948 -0.11934,-0.031 -0.23928,-0.0608 -0.35981,-0.0906 -0.11964,-0.0295 -0.23958,-0.0587 -0.36011,-0.0867 -0.11934,-0.028 -0.23958,-0.0551 -0.35982,-0.0817 -0.11934,-0.0265 -0.23957,-0.0519 -0.36011,-0.0769 -0.11964,-0.025 -0.23928,-0.0501 -0.35981,-0.0736 l -0.36011,-0.0689 -0.35981,-0.0641 c -0.11964,-0.0209 -0.23958,-0.0417 -0.36012,-0.0611 l -0.35981,-0.0566 c -0.11964,-0.0182 -0.23987,-0.0352 -0.36011,-0.0519 l -0.36011,-0.0492 -0.35981,-0.0453 -0.36011,-0.0405 -0.35982,-0.0379 -0.36011,-0.0334 -0.35981,-0.0301 -0.33236,-0.0256 -3e-4,-0.43104 0.33266,-0.0516 0.35981,-0.0593 c 0.12054,-0.0206 0.24077,-0.0411 0.36011,-0.0629 l 0.35982,-0.0692 c 0.12083,-0.0238 0.24077,-0.0486 0.36011,-0.0739 l 0.35981,-0.0784 c 0.12053,-0.0271 0.24107,-0.0546 0.36011,-0.0832 0.12083,-0.0292 0.24047,-0.0596 0.36011,-0.09 0.12083,-0.0307 0.24047,-0.0629 0.35981,-0.0951 0.12054,-0.0328 0.24078,-0.0662 0.36012,-0.10046 0.12053,-0.0346 0.24077,-0.0695 0.35981,-0.10552 0.12053,-0.0364 0.24107,-0.0739 0.36011,-0.11208 0.12083,-0.0387 0.24047,-0.0787 0.35981,-0.11894 0.12113,-0.0408 0.24077,-0.0829 0.36011,-0.1252 0.12084,-0.0429 0.24077,-0.0864 0.35982,-0.13116 0.12083,-0.0453 0.24106,-0.0912 0.36011,-0.13801 0.12083,-0.0474 0.24077,-0.096 0.35981,-0.14517 0.12113,-0.0501 0.24107,-0.10076 0.36011,-0.15263 0.12113,-0.0528 0.24077,-0.10641 0.35981,-0.16097 0.12114,-0.0551 0.24107,-0.11178 0.36012,-0.16901 0.12113,-0.0581 0.24106,-0.11745 0.36011,-0.17736 0.12083,-0.0611 0.24106,-0.12312 0.35981,-0.18601 0.12113,-0.0641 0.24137,-0.12938 0.36011,-0.19525 0.12113,-0.0674 0.24107,-0.13563 0.35981,-0.20479 0.12113,-0.0707 0.24137,-0.14249 0.36011,-0.21522 0.12143,-0.0742 0.24107,-0.14934 0.35982,-0.22566 0.12143,-0.0778 0.24136,-0.15739 0.36011,-0.23757 0.12143,-0.082 0.24136,-0.16515 0.35981,-0.2495 0.12173,-0.0864 0.24167,-0.17379 0.36011,-0.26232 0.12173,-0.0909 0.24167,-0.18273 0.35982,-0.27604 0.12172,-0.096 0.24196,-0.19256 0.36011,-0.29093 0.12172,-0.10135 0.24166,-0.20419 0.35981,-0.30793 0.12232,-0.10761 0.24196,-0.21641 0.36011,-0.32641 0.12203,-0.11357 0.24226,-0.22863 0.36011,-0.34489 0.12203,-0.12043 0.24226,-0.24205 0.35981,-0.36516 0.12263,-0.12877 0.24256,-0.25874 0.36011,-0.3905 0.12263,-0.13712 0.24257,-0.27633 0.35982,-0.41673 0.12292,-0.14695 0.24316,-0.296 0.36011,-0.44654 0.12322,-0.15888 0.24316,-0.31985 0.35981,-0.4826 0.12382,-0.1726 0.24375,-0.34728 0.36011,-0.52375 0.12412,-0.18839 0.24435,-0.37857 0.35981,-0.57144 0.12501,-0.20896 0.24525,-0.4203 0.36012,-0.63403 0.1262,-0.2352 0.24614,-0.47307 0.35981,-0.71363 0.12799,-0.27067 0.24793,-0.54521 0.36011,-0.822433 0.13068,-0.32313 0.25062,-0.650731 0.35981,-0.982505 0.13724,-0.417028 0.25748,-0.840912 0.36011,-1.270162 0.16619,-0.696339 0.28612,-1.407284 0.36012,-2.13045 0.0585,-0.570545 0.0889,-1.14884 0.0889,-1.732798 0,-0.616749 -0.0307,-1.217997 -0.0889,-1.80434 -0.0743,-0.749399 -0.19513,-1.473162 -0.36012,-2.171885 -0.10293,-0.436404 -0.22316,-0.862971 -0.36011,-1.279104 -0.10949,-0.332967 -0.22943,-0.659376 -0.35981,-0.979525 -0.11248,-0.275733 -0.23242,-0.546697 -0.36011,-0.812593 -0.11397,-0.23728 -0.23421,-0.470685 -0.35981,-0.700214 -0.11517,-0.210154 -0.2354,-0.417028 -0.36012,-0.620922 -0.11605,-0.189287 -0.23569,-0.375892 -0.35981,-0.559515 -0.11636,-0.171998 -0.23659,-0.341313 -0.36011,-0.508244 -0.11665,-0.157988 -0.23659,-0.313889 -0.35981,-0.467405 -0.11755,-0.14666 -0.23689,-0.29183 -0.36011,-0.434616 -0.11725,-0.135631 -0.23749,-0.268877 -0.35982,-0.400931 -0.11755,-0.126986 -0.23778,-0.252184 -0.36011,-0.375892 -0.11785,-0.119236 -0.23778,-0.236683 -0.35981,-0.35264 -0.11815,-0.11238 -0.23808,-0.223568 -0.36011,-0.332669 -0.11815,-0.105822 -0.23838,-0.210451 -0.36011,-0.31359 -0.11845,-0.100159 -0.23809,-0.199125 -0.35981,-0.2966 -0.11845,-0.09479 -0.23839,-0.188691 -0.36011,-0.280801 -0.11845,-0.09002 -0.23839,-0.178556 -0.35982,-0.265897 -0.11874,-0.08555 -0.23868,-0.169613 -0.36011,-0.25278 -0.11874,-0.08108 -0.23838,-0.160969 -0.35981,-0.239963 -0.11875,-0.0775 -0.23898,-0.153814 -0.36011,-0.228933 -0.11875,-0.07363 -0.23898,-0.146064 -0.35982,-0.217606 -0.11904,-0.07035 -0.23898,-0.139506 -0.36011,-0.207768 -0.11874,-0.06707 -0.23868,-0.133247 -0.35981,-0.19823 -0.11904,-0.06409 -0.23898,-0.126689 -0.36011,-0.18899 -0.11904,-0.06111 -0.23898,-0.121322 -0.35981,-0.180642 -0.11934,-0.05843 -0.23898,-0.116553 -0.36011,-0.172892 -0.11905,-0.05574 -0.23928,-0.11089 -0.36012,-0.164546 -0.11904,-0.05306 -0.23898,-0.104332 -0.35981,-0.155901 -0.11904,-0.05068 -0.23957,-0.100457 -0.36011,-0.149642 -0.11904,-0.04829 -0.23928,-0.09598 -0.35981,-0.142785 -0.11934,-0.0462 -0.23928,-0.09211 -0.36011,-0.136823 -0.11934,-0.04412 -0.23898,-0.08734 -0.35982,-0.129967 -0.11934,-0.04203 -0.23927,-0.08287 -0.36011,-0.12341 -0.11934,-0.03994 -0.23928,-0.07899 -0.35981,-0.117447 -0.11934,-0.03816 -0.23928,-0.07572 -0.36011,-0.11238 -0.11964,-0.03637 -0.23898,-0.07273 -0.35981,-0.107611 -0.11934,-0.03428 -0.23958,-0.06737 -0.36012,-0.100158 -0.11934,-0.03279 -0.23927,-0.06439 -0.35981,-0.09569 l -0.36011,-0.09151 c -0.11964,-0.02951 -0.23928,-0.05842 -0.36011,-0.08645 -0.11934,-0.02772 -0.23928,-0.05455 -0.35981,-0.08078 l -0.36011,-0.07661 c -0.11964,-0.02474 -0.23898,-0.04978 -0.35982,-0.07303 -0.11934,-0.02325 -0.23987,-0.04471 -0.36011,-0.06677 l -0.35981,-0.0632 c -0.11964,-0.02027 -0.23928,-0.04084 -0.36011,-0.05992 l -0.35981,-0.05455 -0.36012,-0.05068 -0.35981,-0.04769 -0.36011,-0.04263 -0.35981,-0.03875 -0.36011,-0.03607 -0.36011,-0.0316 -0.35982,-0.02772 -0.36011,-0.02564 -0.35981,-0.02057 -0.14291,-0.008 -0.2172,-0.01341 -0.35981,-0.02116 -0.36011,-0.01997 -0.35982,-0.01878 -0.36011,-0.01729 -0.35981,-0.0155 -0.36011,-0.01312 -0.35982,-0.01103 -0.36011,-0.008 -0.36011,-0.0048 -0.1984,-5.96e-4 -0.16141,0 -0.36011,0 -0.35982,0 -0.36011,0 -0.35981,0 -0.36011,0 -0.35981,0 -0.36011,0 -0.35982,0 -0.36011,0 -0.36011,0 -0.35981,0 -0.36011,0 -0.35982,0 -0.36011,0 -0.35981,0 -0.36011,0 -0.35981,0 -0.36011,0 -0.35982,0 -0.36011,0 -0.35981,0 -0.36011,0 -0.36011,0 -0.35982,0 -0.36011,0 -0.35981,0 -0.36011,0 -0.35981,0 -0.36011,0 -0.35982,0 -0.36011,0 -0.35981,0 -0.36011,0 -0.35982,0 -0.36011,0 -0.36011,0 -0.35981,0 -0.36011,0 -0.35981,0 -0.36012,0 -0.35981,0 -0.36011,0 -0.35981,0 -0.36011,0 -0.35982,0 -0.36011,0 -0.35981,0 -0.36011,0 -0.36011,0 -0.35981,0 -0.36012,0 -0.35981,0 -0.36011,0 -0.35981,0 -0.36011,0 -0.35981,0 -0.36012,0 -0.35981,0 -0.36011,0 -0.35981,0 -0.36011,0 -0.36012,0 -0.35981,0 -0.36011,0 -0.35981,0 -0.36011,0 -0.35982,0 -0.36011,0 -0.35981,0 -0.36011,0 -0.35981,0 -0.36011,0 -0.35982,0 -0.36011,0 -0.36011,0 -0.35981,0 -0.36011,0 -0.35982,0 -0.36011,0 -0.35981,0 -0.36011,0 -0.35981,0 -0.36012,0 -0.35981,0 -0.36011,0 -0.35981,0 -0.36011,0 -0.36011,0 -0.35982,0 -0.36011,0 -0.35981,0 -0.36011,0 -0.35981,0 -0.36012,0 -0.35981,0 -0.36011,0 -0.35981,0 -0.36011,0 -0.35982,0 -0.36011,0 -0.36011,0 -0.35981,0 -0.36011,0 -0.35981,0 -0.36012,0 -0.35981,0 -0.36011,0 -0.35981,0 -0.36011,0 -0.35982,0 -0.36011,0 -0.35981,0 -0.36011,0 -0.36011,0 -0.35982,0 -0.36011,0 -0.35981,0 -0.36011,0 -0.35981,0 -0.36011,0 -0.35982,0 -0.36011,0 -0.35981,0 -0.36011,0 -0.35981,0 -0.36012,0 -0.36011,0 -0.35981,0 -0.36011,0 -0.35981,0 -0.36011,0 -0.35982,0 -0.36011,0 -0.35981,0 -0.36011,0 -0.35981,0 -0.36012,0 -0.35981,0 -0.36011,0 -0.36011,0 -0.35981,0 -0.36011,0 -0.35982,0 -0.36011,0 -0.77661,0 0,-38.69538 c 0,-2.603221 0.26822,-5.143545 0.77661,-7.59623 0.1092,-0.525235 0.22943,-1.045999 0.36011,-1.562589 0.11188,-0.442068 0.23242,-0.880856 0.35982,-1.316366 0.11397,-0.389008 0.2339,-0.775333 0.36011,-1.158975 0.11516,-0.350554 0.2345,-0.699319 0.35981,-1.045104 0.11606,-0.320745 0.2354,-0.639701 0.36011,-0.956273 0.11666,-0.295705 0.2363,-0.58992 0.36011,-0.88175 0.11696,-0.275436 0.23659,-0.549679 0.35981,-0.821835 0.11696,-0.258444 0.23749,-0.5151 0.36012,-0.770265 0.11695,-0.243539 0.23748,-0.485291 0.35981,-0.725849 0.11755,-0.231318 0.23808,-0.460848 0.36011,-0.689483 0.11755,-0.220288 0.23779,-0.439087 0.35981,-0.656692 0.11815,-0.211048 0.23809,-0.420307 0.36011,-0.628673 0.11845,-0.202105 0.23779,-0.403315 0.35982,-0.602738 0.11844,-0.19346 0.23838,-0.38543 0.36011,-0.576506 0.11785,-0.185114 0.23868,-0.36844 0.35981,-0.551169 0.11874,-0.178854 0.23838,-0.357112 0.36011,-0.533879 0.11904,-0.173191 0.23779,-0.346381 0.35981,-0.517485 0.11845,-0.165738 0.23928,-0.329389 0.36011,-0.493041 0.11845,-0.160968 0.23898,-0.320745 0.36012,-0.479627 0.11934,-0.156497 0.23808,-0.313591 0.35981,-0.468001 0.11844,-0.150238 0.23958,-0.29809 0.36011,-0.446539 0.11874,-0.146363 0.23868,-0.291532 0.35981,-0.435808 0.11934,-0.142487 0.23868,-0.284974 0.36011,-0.425673 0.11845,-0.137121 0.23928,-0.271858 0.35982,-0.407191 0.11964,-0.13414 0.23868,-0.268579 0.36011,-0.400931 0.11874,-0.129669 0.23928,-0.258146 0.35981,-0.386325 0.11904,-0.12639 0.23928,-0.251886 0.36011,-0.376786 0.11934,-0.123111 0.23868,-0.246222 0.35981,-0.367843 0.11905,-0.119534 0.23958,-0.23728 0.36011,-0.355025 0.11964,-0.11715 0.23839,-0.235492 0.35982,-0.350853 0.11874,-0.112976 0.23987,-0.223269 0.36011,-0.334755 0.11964,-0.110889 0.23898,-0.222077 0.36011,-0.3314761 0.11904,-0.1076105 0.23958,-0.2131344 0.35981,-0.3189564 0.11964,-0.1052259 0.23928,-0.2104517 0.36011,-0.314187 0.11934,-0.102245 0.23928,-0.2029994 0.35982,-0.3037539 0.11964,-0.09986 0.23928,-0.1994223 0.36011,-0.297792 0.11934,-0.097475 0.23928,-0.1937586 0.35981,-0.2894456 l 0.36011,-0.2828875 0.35981,-0.2754353 c 0.11964,-0.090321 0.23958,-0.1800464 0.36012,-0.2688773 0.11934,-0.087937 0.23927,-0.1755751 0.35981,-0.2623193 l 0.36011,-0.2554633 c 0.11934,-0.083763 0.23928,-0.1669305 0.35981,-0.2492033 l 0.36011,-0.2435397 0.36011,-0.2369816 c 0.11964,-0.077802 0.23928,-0.155305 0.35982,-0.2316161 l 0.36011,-0.2247599 c 0.11994,-0.074224 0.23928,-0.1484489 0.35981,-0.2211829 0.11934,-0.072138 0.23988,-0.142189 0.36011,-0.2128364 0.11994,-0.070647 0.23898,-0.1418909 0.35981,-0.2110478 0.11905,-0.068263 0.24018,-0.1341406 0.36012,-0.2012108 0.11993,-0.06707 0.23898,-0.135333 0.35981,-0.2009128 0.11934,-0.064686 0.24017,-0.1272845 0.36011,-0.1907777 0.11994,-0.063493 0.23928,-0.1272845 0.35981,-0.1895853 0.11934,-0.061705 0.23988,-0.1216208 0.36011,-0.181835 0.11964,-0.059916 0.23958,-0.1201303 0.35982,-0.1788541 l 0.36011,-0.1737865 c 0.11964,-0.056935 0.23987,-0.11238 0.36011,-0.1681229 0.11994,-0.055445 0.23928,-0.1117838 0.35981,-0.1660362 0.11934,-0.053656 0.24017,-0.1049277 0.36011,-0.1573916 0.11994,-0.052464 0.23928,-0.105822 0.35981,-0.1570935 0.11935,-0.050675 0.24018,-0.098966 0.36012,-0.1484489 0.11963,-0.049185 0.23927,-0.098966 0.35981,-0.1469584 l 0.36011,-0.1415928 0.35981,-0.1368234 c 0.12024,-0.04531 0.23958,-0.091216 0.36011,-0.1350348 0.11934,-0.043521 0.23988,-0.08436 0.35982,-0.1266883 0.12023,-0.042329 0.23957,-0.085552 0.36011,-0.1266883 0.11934,-0.040838 0.23987,-0.079292 0.35981,-0.118938 l 0.36011,-0.1165533 c 0.11994,-0.038156 0.23958,-0.076609 0.36011,-0.1135723 0.11934,-0.036665 0.23988,-0.071244 0.35982,-0.1067163 0.11993,-0.035771 0.23957,-0.072734 0.36011,-0.1070143 0.11934,-0.033982 0.23987,-0.06558 0.35981,-0.09837 0.11994,-0.03279 0.23958,-0.065878 0.36011,-0.097475 l 0.35981,-0.093004 c 0.11964,-0.030107 0.23988,-0.058724 0.36011,-0.087638 0.11994,-0.028915 0.23928,-0.059916 0.35982,-0.087638 0.11934,-0.027424 0.24017,-0.052464 0.36011,-0.078994 l 0.35981,-0.0783977 0.36011,-0.0742244 c 0.11934,-0.0238472 0.23988,-0.046204 0.35981,-0.0688588 0.12024,-0.0229529 0.23958,-0.0473963 0.36012,-0.0691569 0.11963,-0.0217606 0.24017,-0.0402422 0.36011,-0.0605123 l 0.35981,-0.059618 c 0.11994,-0.0190778 0.23987,-0.0387517 0.36011,-0.0566371 0.11964,-0.0178854 0.23988,-0.0336842 0.35981,-0.0503772 0.12024,-0.016693 0.23958,-0.0348765 0.36012,-0.0503772 0.11963,-0.0155007 0.23987,-0.0292128 0.35981,-0.0435212 l 0.36011,-0.0411364 c 0.11994,-0.013116 0.23957,-0.0277224 0.35981,-0.039646 0.11964,-0.0119236 0.24017,-0.0211644 0.36011,-0.0318956 l 0.35981,-0.0318956 0.36012,-0.0271262 c 0.11963,-0.008645 0.23987,-0.0155007 0.35981,-0.0229529 0.11994,-0.007154 0.23958,-0.016395 0.36011,-0.0226549 0.11964,-0.00626 0.24017,-0.009837 0.36011,-0.0149045 l 0.35981,-0.0134141 c 0.12024,-0.003875 0.23988,-0.008943 0.36011,-0.0116255 0.11964,-0.002683 0.23988,-0.002981 0.35982,-0.004769 0.11993,-0.001789 0.23987,-0.003875 0.36011,-0.004471 l 0.0904,-0.001192 0.26941,0 0.36011,0 0.35981,0 0.36012,0 0.35981,0 0.36011,0 0.35981,0 0.36011,0 0.36011,0 0.35982,0 0.36011,0 0.35981,0 0.36011,0 0.35982,0 0.36011,0 0.35981,0 0.36011,0 0.35981,0 0.36011,0 0.35982,0 0.36011,0 0.36011,0 0.35981,0 0.36011,0 0.35982,0 0.36011,0 0.35981,0 0.36011,0 0.35981,0 0.36011,0 0.35982,0 0.36011,0 0.35981,0 0.36011,0 0.36011,0 0.35982,0 0.36011,0 0.35981,0 0.36011,0 0.35981,0 0.36011,0 0.35982,0 0.36011,0 0.35981,0 0.36011,0 0.36011,0 0.35982,0 0.36011,0 0.35981,0 0.36011,0 0.35982,0 0.36011,0 0.35981,0 0.36011,0 0.35981,0 0.36011,0 0.35982,0 0.36011,0 0.36011,0 0.35981,0 0.36011,0 0.35981,0 0.36012,0 0.35981,0 0.36011,0 0.35981,0 0.36011,0 0.35982,0 0.36011,0 0.35981,0 0.36011,0 0.36011,0 0.35981,0 0.36012,0 0.35981,0 0.36011,0 0.35981,0 0.36011,0 0.35982,0 0.36011,0 0.35981,0 0.36011,0 0.35981,0 0.36012,0 0.36011,0 0.35981,0 0.36011,0 0.35981,0 0.36011,0 0.35982,0 0.36011,0 0.35981,0 0.36011,0 0.35982,0 0.36011,0 0.35981,0 0.36011,0 0.36011,0 0.35981,0 0.36011,0 0.35982,0 0.36011,0 0.35981,0 0.36011,0 0.35981,0 0.36012,0 0.35981,0 0.36011,0 0.35981,0 0.36011,0 0.36012,0 0.35981,0 0.36011,0 0.35981,0 0.36011,0 0.35982,0 0.36011,0 0.35981,0 0.36011,0 0.35981,0 0.36011,0 0.35982,0 0.36011,0 0.36011,0 0.35981,0 0.36011,0 0.35982,0 0.36011,0 0.35981,0 0.36011,0 0.35981,0 0.36012,0 0.35981,0 0.36011,0 0.35981,0 0.36011,0 0.36011,0 0.36011,0 0.35982,0 0.36011,0 0.35981,0 0.36011,0 0.35981,0 0.36012,0 0.35981,0 0.36011,0 0.35981,0 0.36011,0 0.35982,0 0.36011,0 0.35981,0 0.36011,0 0,-2.9809e-4 0,0 0,0 0,0 z"/><path fill="#265797" d="m 1.2088426,129.8349 c -0.25747792,-0.12222 -0.51465751,-0.24533 -0.7718371,-0.36964 l 0,-92.026086 c 0,-2.595768 0.26613015,-5.129535 0.7718371,-7.575662 0.1086002,-0.525235 0.2291345,-1.045701 0.3595144,-1.562589 0.1115837,-0.442664 0.2318197,-0.881751 0.3592161,-1.317856 0.1136722,-0.38871 0.2336097,-0.774439 0.359216,-1.157783 0.115164,-0.350852 0.2342065,-0.700213 0.3595144,-1.046594 0.116059,-0.320447 0.2348032,-0.639105 0.359216,-0.955379 0.1160591,-0.295705 0.2359966,-0.590516 0.3595145,-0.882645 0.1166557,-0.275435 0.2362949,-0.549082 0.359216,-0.82094 0.1169541,-0.258444 0.2368916,-0.514802 0.359216,-0.769967 0.1169541,-0.243838 0.2374884,-0.485887 0.3595144,-0.726744 0.1172524,-0.231318 0.23719,-0.460847 0.3592161,-0.689184 0.1175508,-0.220289 0.2374883,-0.439087 0.359216,-0.656693 0.1178491,-0.210749 0.2374884,-0.420307 0.3595144,-0.628374 0.1181475,-0.202105 0.23719,-0.403614 0.3592161,-0.603334 0.1181474,-0.193163 0.238085,-0.384834 0.3595144,-0.575612 0.1175507,-0.184816 0.2383834,-0.36844 0.359216,-0.551169 0.1184458,-0.178854 0.2377867,-0.357112 0.359216,-0.533879 0.1193409,-0.173489 0.2374884,-0.346679 0.3595144,-0.518081 0.1178492,-0.16544 0.2386818,-0.328793 0.3592161,-0.492445 0.1187442,-0.160968 0.2383834,-0.320745 0.3595144,-0.479627 0.1190425,-0.156199 0.2377867,-0.313591 0.359216,-0.468001 0.1181475,-0.14994 0.2389802,-0.297494 0.3592161,-0.445645 0.1187442,-0.146362 0.2383834,-0.292128 0.3595144,-0.436702 0.1190425,-0.142189 0.238085,-0.28408 0.359216,-0.42448 0.1184458,-0.13742 0.2389801,-0.272455 0.3595144,-0.408086 0.1190425,-0.134439 0.2380848,-0.268579 0.3592158,-0.400931 0.118446,-0.129669 0.23898,-0.25755 0.359216,-0.385431 0.119043,-0.126688 0.238682,-0.252184 0.359515,-0.377084 0.119042,-0.123111 0.238383,-0.246222 0.359216,-0.367843 0.118744,-0.119534 0.239278,-0.23728 0.359514,-0.355025 0.119639,-0.11715 0.238085,-0.235193 0.359216,-0.350554 0.118446,-0.112976 0.239279,-0.22327 0.359216,-0.334755 0.11964,-0.111188 0.238384,-0.2226739 0.359515,-0.3320729 0.118744,-0.1073125 0.239278,-0.2125383 0.359216,-0.3183603 0.119639,-0.1052258 0.238681,-0.2107497 0.359514,-0.3144851 0.119043,-0.1022449 0.23898,-0.2027013 0.359216,-0.3034558 0.119043,-0.09986 0.238682,-0.1997204 0.359216,-0.2980901 0.119043,-0.097177 0.239279,-0.1934605 0.359515,-0.2894455 0.11934,-0.095091 0.238681,-0.1892873 0.359216,-0.2828876 0.119042,-0.092706 0.239278,-0.1842197 0.359514,-0.2754353 0.119341,-0.090321 0.23898,-0.1803445 0.359216,-0.2691754 l 0.359216,-0.2617231 c 0.119341,-0.086148 0.23898,-0.1716999 0.359514,-0.2563575 0.119043,-0.083763 0.238981,-0.1666324 0.359216,-0.2489053 0.119341,-0.081975 0.238981,-0.1633534 0.359217,-0.2438377 0.11934,-0.07959 0.239278,-0.1579878 0.359514,-0.2363855 0.119341,-0.077802 0.238682,-0.1561993 0.359216,-0.2328084 0.119042,-0.075715 0.239278,-0.1496413 0.359514,-0.2241638 0.11964,-0.074224 0.238682,-0.1493432 0.359217,-0.2220772 0.118744,-0.07184 0.239278,-0.1415928 0.359216,-0.2122401 0.119937,-0.070647 0.238681,-0.1424871 0.359514,-0.2119421 0.118744,-0.068263 0.239577,-0.1335444 0.359216,-0.2006147 0.119937,-0.06707 0.23898,-0.1350348 0.359514,-0.2009127 0.119043,-0.064984 0.239279,-0.1275826 0.359216,-0.1910758 0.11964,-0.063493 0.23898,-0.1272845 0.359216,-0.1895854 0.119341,-0.061705 0.239279,-0.1222169 0.359515,-0.1827292 l 0.359216,-0.1782579 c 0.119639,-0.058724 0.239278,-0.1174475 0.359514,-0.1746808 0.119341,-0.056935 0.239279,-0.1120819 0.359216,-0.1678248 0.119938,-0.055743 0.238682,-0.112678 0.359216,-0.1669304 0.119043,-0.053954 0.239577,-0.1046297 0.359515,-0.1570936 0.119639,-0.052464 0.23898,-0.1058219 0.359216,-0.1570935 0.119341,-0.050675 0.239577,-0.099562 0.359514,-0.149045 L 23.846912,2.8437271 24.206128,2.70124 24.565643,2.5647147 c 0.119937,-0.04531 0.238681,-0.09211 0.359216,-0.1362271 0.119042,-0.043521 0.239875,-0.084061 0.359514,-0.1263903 0.119639,-0.042329 0.23898,-0.085254 0.359216,-0.1263902 L 26.002805,2.0555768 26.36232,1.9390235 c 0.119639,-0.038156 0.23898,-0.077205 0.359216,-0.1141685 0.119042,-0.036665 0.239576,-0.071542 0.359216,-0.1070143 0.119937,-0.035771 0.239278,-0.072138 0.359514,-0.1067163 0.119341,-0.03428 0.239279,-0.066176 0.359216,-0.099264 l 0.359514,-0.097476 c 0.11964,-0.031598 0.238981,-0.063791 0.359217,-0.094197 0.11934,-0.030405 0.239576,-0.058128 0.359216,-0.08734 0.119639,-0.029213 0.239278,-0.059618 0.359514,-0.087638 0.119341,-0.027722 0.239577,-0.053656 0.359216,-0.080186 L 29.955673,0.9869238 C 30.075313,0.961288 30.194654,0.9353542 30.314889,0.9112089 30.43423,0.8873617 30.554466,0.865303 30.674106,0.8423501 30.794043,0.8193972 30.913384,0.7955499 31.03362,0.7737894 31.153259,0.7520288 31.272898,0.7323549 31.392836,0.7117866 l 0.359514,-0.059618 c 0.11964,-0.0190778 0.23898,-0.039646 0.359216,-0.0578295 0.119341,-0.0181835 0.239577,-0.0333861 0.359216,-0.0503772 0.11964,-0.016693 0.239279,-0.0345785 0.359515,-0.0503772 L 33.189513,0.4485731 33.549027,0.4077348 C 33.668965,0.3943207 33.788007,0.3788201 33.908243,0.3665984 34.027584,0.3543767 34.14782,0.345434 34.267459,0.3344047 l 0.359515,-0.0315976 c 0.119639,-0.0101351 0.239278,-0.019972 0.359216,-0.0286167 0.119639,-0.008645 0.239577,-0.0155007 0.359514,-0.0229529 0.119938,-0.007452 0.239279,-0.0160969 0.359216,-0.0226549 0.119341,-0.006558 0.239279,-0.0110293 0.359216,-0.016395 l 0.359515,-0.0137121 c 0.119639,-0.004173 0.23898,-0.0104332 0.359216,-0.0134141 0.119341,-0.002981 0.239577,-0.002683 0.359216,-0.004471 0.119639,-0.001789 0.239577,-0.003875 0.359514,-0.004471 l 0.159619,-0.002087 0.199597,0 0.359515,0 0.359216,0 0.359216,0 0.359514,0 0.359216,0 0.359515,0 0.359216,0 0.359216,0 0.359514,0 0.359216,0 0.359515,0 0.359216,0 0.359216,0 0.359514,0 0.359216,0 0.359514,0 0.359216,0 0.359216,0 0.359515,0 0.359216,0 0.359514,0 0.359216,0 0.359216,0 0.359515,0 0.359216,0 0.359514,0 0.359216,0 0.359216,0 0.359515,0 0.359216,0 0.359514,0 0.359216,0 0.359216,0 0.359515,0 0.359216,0 0.359216,0 0.359514,0 0.359216,0 0.359515,0 0.359216,0 0.359216,0 0.359514,0 0.359216,0 0.359515,0 0.359216,0 0.359216,0 0.359514,0 0.359216,0 0.359515,0 0.359215,0 0.359217,0 0.359514,0 0.359216,0 0.359514,0 0.359216,0 0.359216,0 0.359515,0 0.359216,0 0.359216,0 0.359514,0 0.359216,0 0.359515,0 0.359216,0 0.359514,0 0.359216,0 0.359216,0 0.359515,0 0.359216,0 0.359216,0 0.359514,0 0.359216,0 0.359515,0 0.359216,0 0.359216,0 0.359514,0 0.359216,0 0.359515,0 0.359216,0 0.359216,0 0.359514,0 0.359216,0 0.359514,0 0.359217,0 0.359216,0 0.359514,0 0.359216,0 0.359216,0 0.359515,0 0.359216,0 0.359514,0 0.359216,0 0.359514,0 0.359216,0 0.359216,0 0.359515,0 0.359216,0 0.359514,0 0.359216,0 0.359216,0 0.359515,0 0.359216,0 0.359216,0 0.359514,0 0.359216,0 0.359515,0 0.359216,0 0.359514,0 0.359216,0 0.359216,0 0.359515,0 0.359216,0 0.359216,0 0.359514,0 0.359216,0 0.359515,0 0.359216,0 0.359216,0 0.359514,0 0.359216,0 0.359216,0 0.359515,0 0.359216,0 0.359514,0 0.359216,0 0.359514,0 0.359217,0 0.359215,0 0.359515,0 0.359216,0 0.359216,0 0.359514,0 0.359216,0 0.359515,0 0.359216,0 0.359216,0 0.359514,0 0.359216,0 0.359515,0 0.359216,0 0.359216,0 0.359514,0 0.359216,0 0.359515,0 0.359216,0 0.359216,0 0.359514,0 0.359216,0 0.359216,0 0.359515,0 0.359216,0 0.359514,0 0.304916,0 0,186.3119976 c 0,1.62072 -0.104125,3.21729 -0.304916,4.78345 -0.09667,0.75417 -0.218394,1.50029 -0.359514,2.23956 -0.107407,0.56219 -0.226748,1.12022 -0.359216,1.67318 -0.111584,0.46591 -0.230925,0.92855 -0.359515,1.38761 -0.113075,0.40272 -0.233311,0.80245 -0.359216,1.19921 -0.114269,0.3595 -0.234505,0.71631 -0.359216,1.07104 -0.115462,0.3282 -0.235101,0.65461 -0.359514,0.97863 -0.116059,0.30256 -0.235698,0.60304 -0.359216,0.90172 -0.116358,0.2811 -0.236295,0.56101 -0.359216,0.83853 -0.116954,0.26351 -0.236892,0.52523 -0.359515,0.78577 -0.116954,0.2483 -0.236891,0.49483 -0.359216,0.74015 -0.117551,0.2355 -0.23719,0.4695 -0.359514,0.70201 -0.117551,0.22386 -0.23719,0.44653 -0.359216,0.66772 -0.118148,0.21403 -0.236892,0.42716 -0.359216,0.63851 -0.117849,0.20389 -0.237787,0.40659 -0.359515,0.6081 -0.11755,0.19495 -0.238085,0.38782 -0.359216,0.58038 -0.118147,0.1881 -0.238085,0.375 -0.359514,0.56071 -0.118744,0.18154 -0.237488,0.36278 -0.359216,0.54193 -0.118148,0.17378 -0.238384,0.34638 -0.359216,0.51808 -0.118148,0.16782 -0.238383,0.33416 -0.359515,0.50019 -0.118744,0.16306 -0.238085,0.32552 -0.359216,0.48649 -0.118445,0.15739 -0.238383,0.31359 -0.359514,0.46889 -0.118446,0.15173 -0.238682,0.30197 -0.359216,0.45191 -0.119043,0.14815 -0.238085,0.2963 -0.359216,0.44236 -0.118446,0.14279 -0.23898,0.28378 -0.359515,0.42478 -0.118744,0.13891 -0.238383,0.27663 -0.359215,0.41375 -0.119341,0.13533 -0.238086,0.27126 -0.359217,0.40481 -0.118445,0.13056 -0.239278,0.25874 -0.359514,0.38781 -0.119341,0.12788 -0.238085,0.25606 -0.359216,0.38215 -0.118744,0.12371 -0.23898,0.24563 -0.359514,0.36785 -0.119043,0.12072 -0.238384,0.24056 -0.359216,0.35979 -0.119043,0.11775 -0.238682,0.2346 -0.359515,0.35085 -0.118744,0.11417 -0.23898,0.22685 -0.359216,0.33953 -0.119341,0.11178 -0.238383,0.22386 -0.359216,0.33416 -0.118744,0.1082 -0.239278,0.21432 -0.359514,0.32104 -0.11964,0.10642 -0.238085,0.21373 -0.359216,0.31836 -0.118446,0.10254 -0.239577,0.2024 -0.359216,0.30375 -0.11964,0.10106 -0.238682,0.203 -0.359515,0.30257 -0.118744,0.0978 -0.239278,0.19346 -0.359216,0.28944 -0.119639,0.096 -0.238682,0.19287 -0.359514,0.28736 -0.118744,0.093 -0.239279,0.18362 -0.359216,0.27514 -0.119639,0.0912 -0.238384,0.18302 -0.359216,0.27275 -0.118744,0.0885 -0.239577,0.17468 -0.359515,0.26202 -0.119639,0.0867 -0.238383,0.17438 -0.359216,0.25994 -0.118744,0.0841 -0.239278,0.16633 -0.359216,0.2489 -0.119937,0.0829 -0.238682,0.16663 -0.359514,0.24801 -0.118744,0.0799 -0.239279,0.15769 -0.359216,0.23639 -0.119938,0.0787 -0.238682,0.15888 -0.359515,0.23638 -0.118744,0.076 -0.239576,0.14905 -0.359216,0.22387 -0.119639,0.0748 -0.238681,0.15083 -0.359514,0.22416 -0.119043,0.0724 -0.239577,0.14279 -0.359216,0.21373 -0.119639,0.071 -0.238682,0.14249 -0.359216,0.21224 -0.119341,0.0689 -0.239279,0.13623 -0.359515,0.2039 -0.119341,0.0674 -0.23898,0.13473 -0.359216,0.20061 -0.11934,0.0656 -0.23898,0.13057 -0.359216,0.19465 l -0.359514,0.18959 c -0.119639,0.0623 -0.23898,0.1246 -0.359216,0.18571 -0.119341,0.0605 -0.239279,0.11924 -0.359515,0.17856 -0.119639,0.059 -0.238681,0.11983 -0.359216,0.17766 -0.119042,0.0572 -0.239576,0.11178 -0.359216,0.16782 -0.119937,0.056 -0.23898,0.11298 -0.359514,0.16783 -0.119043,0.0542 -0.239577,0.10612 -0.359216,0.15918 l -0.359514,0.15709 -0.359216,0.15233 c -0.119341,0.0498 -0.239577,0.0981 -0.359515,0.14666 -0.119639,0.0486 -0.23898,0.0981 -0.359216,0.14546 -0.119043,0.0468 -0.239278,0.0906 -0.359216,0.13623 -0.119938,0.0456 -0.23898,0.0921 -0.359514,0.13653 -0.119341,0.0441 -0.239279,0.0861 -0.359216,0.12907 l -0.359217,0.12639 -0.359514,0.12311 c -0.119341,0.0399 -0.239577,0.0781 -0.359216,0.11655 -0.119937,0.0388 -0.23898,0.079 -0.359514,0.11656 -0.119043,0.0373 -0.239577,0.0715 -0.359216,0.10761 l -0.359216,0.10671 -0.359515,0.10225 c -0.119341,0.0334 -0.239278,0.065 -0.359216,0.0972 -0.119937,0.0322 -0.239278,0.0662 -0.359514,0.0969 -0.119043,0.0307 -0.239875,0.0581 -0.359216,0.0876 -0.11964,0.0295 -0.239279,0.0593 -0.359216,0.0876 l -0.359515,0.0826 -0.359216,0.0784 c -0.119937,0.0259 -0.23898,0.0537 -0.359514,0.0784 -0.119341,0.0244 -0.239577,0.0453 -0.359216,0.0686 -0.119639,0.0232 -0.239279,0.0468 -0.359216,0.0689 l -0.359515,0.0647 c -0.119341,0.0209 -0.239278,0.0396 -0.359216,0.0593 -0.119937,0.0197 -0.239278,0.0411 -0.359216,0.0596 -0.119341,0.0185 -0.239577,0.034 -0.359514,0.0513 l -0.359216,0.0504 c -0.119639,0.0161 -0.239279,0.0325 -0.359515,0.0474 -0.11934,0.0149 -0.239576,0.0274 -0.359216,0.0411 -0.119937,0.0137 -0.239278,0.0286 -0.359514,0.0411 -0.119341,0.0125 -0.239278,0.0232 -0.359216,0.0346 l -0.359216,0.0319 c -0.119938,0.0101 -0.239279,0.0227 -0.359515,0.0316 -0.11934,0.009 -0.239576,0.0149 -0.359216,0.0227 l -0.359216,0.0226 -0.359514,0.0191 c -0.119341,0.006 -0.239577,0.009 -0.359216,0.0137 -0.119938,0.004 -0.239577,0.0101 -0.359514,0.0137 -0.119341,0.003 -0.239577,0.004 -0.359217,0.007 l -0.359215,0.004 c -0.110988,8.9e-4 -0.221676,0.004 -0.33326,0.004 l -0.02625,0 -0.359216,0 -0.359514,0 -0.359216,0 -0.359216,0 -0.359515,0 -0.359216,0 -0.359514,0 -0.359216,0 -0.359216,0 -0.359515,0 -0.359216,0 -0.359514,0 -0.359216,0 -0.359216,0 -0.359515,0 -0.359216,0 -0.359216,0 -0.359514,0 -0.359216,0 -0.359515,0 -0.359216,0 -0.359216,0 -0.359514,0 -0.359216,0 -0.359515,0 -0.359216,0 -0.359216,0 -0.359514,0 -0.359216,0 -0.359515,0 -0.359216,0 -0.359216,0 -0.359514,0 -0.359216,0 -0.359514,0 -0.359216,0 -0.359216,0 -0.359515,0 -0.359216,0 -0.359514,0 -0.359216,0 -0.359216,0 -0.359515,0 -0.359216,0 -0.359514,0 -0.359216,0 -0.359216,0 -0.359515,0 -0.359216,0 -0.359514,0 -0.359216,0 -0.359216,0 -0.359515,0 -0.359216,0 -0.359216,0 -0.359514,0 -0.359216,0 -0.359515,0 -0.359216,0 -0.359216,0 -0.359514,0 -0.359216,0 -0.359515,0 -0.359216,0 -0.359216,0 -0.359514,0 -0.359216,0 -0.359514,0 -0.359217,0 -0.359216,0 -0.359514,0 -0.359216,0 -0.359514,0 -0.359216,0 -0.359217,0 -0.359514,0 -0.359216,0 -0.359514,0 -0.359216,0 -0.359216,0 -0.359515,0 -0.359216,0 -0.359216,0 -0.359514,0 -0.359216,0 -0.359515,0 -0.359216,0 -0.359216,0 -0.359514,0 -0.359216,0 -0.359515,0 -0.359216,0 -0.359216,0 -0.359514,0 -0.359216,0 -0.359515,0 -0.359216,0 -0.359216,0 -0.359514,0 -0.359216,0 -0.359514,0 -0.359216,0 -0.359217,0 -0.359514,0 -0.359216,0 -0.359514,0 -0.359217,0 -0.359216,0 -0.359514,0 -0.359216,0 -0.359216,0 -0.359514,0 -0.359216,0 -0.359515,0 -0.359216,0 -0.359216,0 -0.359514,0 -0.359216,0 -0.359515,0 -0.359216,0 -0.359216,0 -0.359514,0 -0.359216,0 -0.359515,0 -0.359216,0 -0.3592158,0 -0.3595144,0 -0.359216,0 -0.3595144,0 -0.3592161,0 -0.359216,0 -0.3595144,0 -0.3592161,0 -0.3595144,0 -0.359216,0 -0.359216,0 -0.3595144,0 -0.3592161,0 -0.3595144,0 -0.359216,0 -0.3592161,0 -0.3595144,0 -0.359216,0 -0.359216,0 -0.3595145,0 -0.359216,0 -0.3595144,0 -0.359216,0 -0.3592161,0 -0.3595144,0 -0.7718371,0 0,-78.52856 c 0,0 0.26553345,0.073 0.7718371,0.20061 l 0.3595144,0.0897 0.3592161,0.0876 0.359216,0.0862 0.3595144,0.085 0.359216,0.0835 0.3595145,0.0823 0.359216,0.0811 0.359216,0.0799 0.3595144,0.0787 0.3592161,0.0778 0.359216,0.0766 0.3595144,0.0757 0.3592161,0.0748 0.3595144,0.0733 0.359216,0.0727 0.359216,0.0718 0.3595144,0.071 0.3592161,0.0697 0.3595144,0.0694 0.359216,0.0683 0.3592161,0.0671 0.3595144,0.0665 0.359216,0.0656 0.3595144,0.0647 0.3592158,0.0641 0.359216,0.0629 0.359515,0.0623 0.359216,0.0611 0.359514,0.0605 0.359216,0.0596 0.359216,0.059 0.359515,0.0581 0.359216,0.0572 0.359514,0.0566 0.359216,0.0557 0.359216,0.0551 0.359515,0.054 0.359216,0.0533 0.359514,0.0525 0.359216,0.0519 0.359216,0.051 0.359514,0.0504 0.359216,0.0492 0.359217,0.0489 0.359514,0.0477 0.359216,0.0471 0.359514,0.0465 0.359217,0.0453 0.359216,0.045 0.359514,0.0438 0.359216,0.0435 0.359514,0.042 0.359216,0.042 0.359216,0.0405 0.359515,0.0405 0.359216,0.0393 0.359514,0.0385 0.359216,0.0382 0.359216,0.0367 0.359515,0.0367 0.359216,0.0352 0.359514,0.0349 0.359216,0.0343 0.359216,0.0328 0.359515,0.0331 0.359216,0.031 0.359514,0.031 0.359216,0.0301 0.359216,0.0292 0.359515,0.0289 0.359216,0.0271 0.359216,0.0274 0.359514,0.0259 0.359216,0.0253 0.359514,0.025 0.359217,0.0232 0.359216,0.0233 0.359514,0.0224 0.359216,0.0212 0.359514,0.0212 0.359216,0.0194 0.359217,0.0191 0.359514,0.0185 0.359216,0.017 0.359514,0.017 0.359216,0.0155 0.359216,0.0149 0.359515,0.0149 0.359216,0.0125 0.359514,0.0128 0.359216,0.0119 0.359216,0.0104 0.359515,0.0107 0.359216,0.009 0.359514,0.008 0.359216,0.008 0.359216,0.006 0.359515,0.006 0.359216,0.005 0.359216,0.004 0.359514,0.004 0.359216,0.003 0.359515,0.001 0.359216,8.9e-4 0.138733,6e-4 0.220483,-0.001 0.359514,-0.002 0.359216,-0.002 0.359515,-0.002 0.359216,-0.002 0.359216,-0.007 0.359514,-0.007 0.359216,-0.007 0.359515,-0.007 0.359216,-0.009 0.359216,-0.0113 0.359514,-0.011 0.359216,-0.011 0.359514,-0.0119 0.359216,-0.0158 0.359216,-0.0158 0.359515,-0.0161 0.359216,-0.0158 0.359514,-0.02 0.359216,-0.0206 0.359216,-0.0209 0.359515,-0.0209 0.359216,-0.0239 0.359514,-0.0259 0.359216,-0.0256 0.359216,-0.0259 0.359515,-0.0286 0.359216,-0.031 0.359514,-0.031 0.359216,-0.0313 0.359216,-0.0337 0.359515,-0.0367 0.359216,-0.0364 0.359216,-0.0367 0.359514,-0.0399 0.359216,-0.042 0.359515,-0.0423 0.359216,-0.042 0.359216,-0.0468 0.359514,-0.048 0.359216,-0.048 0.359515,-0.0489 c 0.121131,-0.0173 0.23898,-0.0364 0.359216,-0.054 l 0.359216,-0.054 0.359514,-0.0542 0.359216,-0.0569 c 0.120833,-0.0194 0.239279,-0.0405 0.359515,-0.0605 l 0.359215,-0.0602 c 0.119043,-0.0203 0.241069,-0.0396 0.359217,-0.0605 0.121131,-0.0215 0.23898,-0.0444 0.359514,-0.0665 l 0.359216,-0.0671 0.359514,-0.0671 0.359216,-0.0703 c 0.120833,-0.0238 0.239279,-0.0495 0.359216,-0.0739 l 0.359515,-0.0739 0.359216,-0.0751 c 0.121429,-0.0259 0.23898,-0.054 0.359216,-0.0808 l 0.359514,-0.0811 c 0.119043,-0.0274 0.241069,-0.0531 0.359216,-0.0808 0.12143,-0.0286 0.239279,-0.0587 0.359515,-0.0876 l 0.359216,-0.0885 c 0.119341,-0.0295 0.241068,-0.0581 0.359514,-0.0882 0.120833,-0.0307 0.239577,-0.0629 0.359216,-0.0942 l 0.359216,-0.096 c 0.11964,-0.0322 0.241069,-0.0635 0.359515,-0.0963 0.120832,-0.0331 0.239577,-0.0677 0.359216,-0.10165 l 0.359216,-0.10404 c 0.119639,-0.0349 0.241068,-0.0688 0.359514,-0.10433 l 0.359216,-0.10999 0.359515,-0.11268 c 0.119341,-0.0376 0.241068,-0.0742 0.359216,-0.11268 l 0.359216,-0.11953 0.359514,-0.12162 c 0.119341,-0.0408 0.241367,-0.0802 0.359216,-0.12162 0.12143,-0.0426 0.239279,-0.0871 0.359515,-0.13027 l 0.359216,-0.13086 c 0.119639,-0.0444 0.24077,-0.0879 0.359216,-0.13295 0.121429,-0.0459 0.239577,-0.0936 0.359514,-0.1404 0.119938,-0.0468 0.24077,-0.0933 0.359216,-0.1407 l 0.359514,-0.14606 0.359217,-0.15084 c 0.11934,-0.0504 0.241366,-0.0993 0.359216,-0.15053 0.121727,-0.0528 0.239278,-0.10791 0.359514,-0.16157 l 0.359216,-0.16126 0.359216,-0.16693 c 0.120833,-0.0569 0.240174,-0.11507 0.359515,-0.1729 0.119639,-0.0578 0.241366,-0.11506 0.359216,-0.17378 0.121727,-0.0608 0.239576,-0.12341 0.359514,-0.18482 0.119938,-0.0614 0.241068,-0.12222 0.359216,-0.18452 0.121429,-0.0638 0.239875,-0.12907 0.359514,-0.19405 0.120535,-0.0653 0.240472,-0.13086 0.359216,-0.19704 0.120833,-0.0674 0.240472,-0.13533 0.359216,-0.2036 0.121132,-0.0695 0.240472,-0.1401 0.359515,-0.21075 0.120236,-0.0712 0.24077,-0.14248 0.359216,-0.21462 0.121429,-0.0742 0.240173,-0.14934 0.359514,-0.22446 0.120236,-0.0754 0.241069,-0.15084 0.359216,-0.22745 0.12143,-0.0787 0.239875,-0.15947 0.359216,-0.23936 0.120236,-0.0808 0.241367,-0.16067 0.359515,-0.24235 0.121727,-0.0841 0.239875,-0.16961 0.359216,-0.25487 0.120236,-0.0858 0.241367,-0.17199 0.359216,-0.25904 0.121728,-0.0897 0.240472,-0.18064 0.359514,-0.27156 0.120833,-0.0921 0.241069,-0.18481 0.359216,-0.27811 0.121131,-0.0957 0.240771,-0.19257 0.359515,-0.28975 0.121131,-0.0993 0.24077,-0.19972 0.359216,-0.30018 0.120832,-0.10254 0.241665,-0.20478 0.359514,-0.30852 0.122026,-0.10731 0.240174,-0.21671 0.359216,-0.32551 0.120534,-0.1103 0.241665,-0.22029 0.359216,-0.33208 0.122026,-0.11595 0.241069,-0.2331 0.359515,-0.35055 0.121429,-0.12043 0.241068,-0.24205 0.359216,-0.36397 0.120832,-0.1246 0.241963,-0.2489 0.359216,-0.37499 0.122324,-0.13206 0.24077,-0.2656 0.359514,-0.39945 0.122026,-0.13742 0.241367,-0.27603 0.359216,-0.41524 0.121429,-0.14338 0.242262,-0.28706 0.359515,-0.43252 0.121727,-0.15114 0.241963,-0.30227 0.359216,-0.45519 0.122622,-0.16007 0.241367,-0.32164 0.359216,-0.4838 0.122622,-0.16872 0.241963,-0.33863 0.359514,-0.50973 0.122623,-0.17826 0.242262,-0.35801 0.359216,-0.53895 0.122623,-0.18958 0.24256,-0.38066 0.359216,-0.57323 0.122921,-0.20329 0.243157,-0.40749 0.359515,-0.61376 0.123517,-0.2185 0.243157,-0.43849 0.359216,-0.66027 0.124114,-0.23728 0.243753,-0.47605 0.359514,-0.71661 0.124711,-0.25874 0.244052,-0.51987 0.359216,-0.78249 0.12501,-0.28557 0.245246,-0.57293 0.359514,-0.86297 0.125905,-0.31985 0.246141,-0.64238 0.359217,-0.9676 0.128291,-0.36904 0.247334,-0.74195 0.359215,-1.11784 0.130679,-0.43938 0.250318,-0.88324 0.359515,-1.33127 0.135452,-0.55594 0.255688,-1.11813 0.359216,-1.68659 0.15395,-0.84628 0.272694,-1.70597 0.359216,-2.57699 0.120833,-1.21472 0.179608,-2.4512 0.179608,-3.70705 l 0,-43.234099 -0.179608,0 -0.359216,0 -0.359216,0 -0.359515,0 -0.359215,0 -0.359217,0 -0.359514,0 -0.359216,0 -0.359514,0 -0.359216,0 -0.359515,0 -0.359216,0 -0.359216,0 -0.359514,0 -0.359216,0 -0.359216,0 -0.359515,0 -0.359216,0 -0.359514,0 -0.359216,0 -0.359216,0 -0.359515,0 -0.359216,0 -0.359216,0 -0.359514,0 -0.359216,0 -0.359515,0 -0.359216,0 -0.359514,0 -0.359216,0 -0.359216,0 -0.359515,0 -0.359216,0 -0.359216,0 -0.359514,0 -0.359216,0 -0.359515,0 -0.359216,0 -0.359216,0 -0.359514,0 -0.359216,0 -0.359514,0 -0.359216,0 -0.359515,0 -0.359216,0 -0.359216,0 -0.359514,0 -0.359216,0 -0.359217,0 -0.359514,0 -0.359216,0 -0.359514,0 -0.359216,0 -0.359216,0 -0.359515,0 -0.359216,0 -0.359514,0 -0.359216,0 -0.359216,0 -0.359515,0 -0.359216,0 -0.359514,0 -0.359216,0 -0.359216,0 -0.359515,0 -0.359216,0 -0.359216,0 -0.359514,0 -0.359216,0 -0.359515,0 -0.359216,0 -0.359514,0 -0.359216,0 -0.359216,0 -0.359515,0 -0.359216,0 -0.359216,0 -0.359514,0 -0.359216,0 -0.359514,0 -0.359217,0 -0.359215,0 -0.359515,0 -0.359216,0 -0.359514,0 -0.359216,0 -0.359216,0 -0.359515,0 -0.359216,0 -0.272395,0 0,43.234099 c 0,0.67666 -0.02954,1.3426 -0.08712,1.99571 -0.0734,0.83197 -0.193631,1.64308 -0.359216,2.43182 -0.102335,0.48708 -0.222273,0.96522 -0.359216,1.43441 -0.109197,0.37381 -0.228538,0.74165 -0.359515,1.10323 -0.111584,0.30793 -0.231819,0.61079 -0.359216,0.90948 -0.113672,0.26649 -0.233311,0.52881 -0.359514,0.78755 -0.114866,0.23549 -0.233908,0.4683 -0.359216,0.69693 -0.115164,0.21046 -0.235699,0.41673 -0.359216,0.62122 -0.116059,0.19227 -0.235698,0.38216 -0.359515,0.56906 -0.116357,0.17528 -0.236295,0.34817 -0.359216,0.51868 -0.116954,0.16245 -0.235996,0.32372 -0.359216,0.48201 -0.116954,0.15023 -0.23719,0.29749 -0.359514,0.44356 -0.117253,0.1398 -0.236892,0.27752 -0.359216,0.41374 -0.117551,0.13116 -0.23719,0.26083 -0.359515,0.38812 -0.117849,0.12281 -0.23719,0.24443 -0.359216,0.36397 -0.117849,0.11536 -0.237488,0.22982 -0.359216,0.34191 -0.117849,0.1085 -0.238085,0.21492 -0.359514,0.32044 -0.117849,0.10225 -0.237787,0.2033 -0.359216,0.30256 -0.118148,0.0966 -0.238384,0.19168 -0.359515,0.28557 -0.118147,0.0912 -0.238085,0.18124 -0.359216,0.27007 -0.118445,0.0864 -0.238085,0.1717 -0.359216,0.25547 -0.118446,0.082 -0.238085,0.16246 -0.359514,0.24205 -0.118446,0.0775 -0.238085,0.15381 -0.359216,0.22893 -0.118446,0.0733 -0.238383,0.14547 -0.359515,0.21641 -0.118445,0.0695 -0.238383,0.13742 -0.359216,0.20479 -0.118445,0.0659 -0.238383,0.12997 -0.359216,0.19376 -0.118744,0.0626 -0.238383,0.12371 -0.359514,0.18392 -0.118744,0.059 -0.238383,0.11715 -0.359216,0.17438 -0.119043,0.056 -0.238383,0.11179 -0.359514,0.16574 -0.119043,0.0531 -0.238384,0.10553 -0.359216,0.1565 -0.118446,0.0501 -0.238682,0.0984 -0.359216,0.14636 -0.118745,0.0474 -0.238981,0.0936 -0.359515,0.13891 -0.119042,0.0447 -0.238383,0.0885 -0.359216,0.13146 -0.119042,0.0423 -0.238682,0.0844 -0.359514,0.1246 -0.118745,0.0396 -0.238682,0.0784 -0.359216,0.11626 -0.118744,0.0373 -0.238981,0.073 -0.359216,0.1085 -0.119043,0.0352 -0.238981,0.0697 -0.359515,0.10284 -0.119341,0.0328 -0.238682,0.0659 -0.359216,0.0969 -0.119042,0.0307 -0.23898,0.0602 -0.359514,0.0891 -0.118744,0.0286 -0.238682,0.056 -0.359216,0.0829 -0.119043,0.0265 -0.238682,0.0528 -0.359216,0.0778 -0.119341,0.0247 -0.238682,0.0489 -0.359515,0.0718 -0.119042,0.0227 -0.23898,0.0438 -0.359216,0.065 -0.119341,0.0209 -0.23898,0.0417 -0.359514,0.0611 l -0.359216,0.0548 c -0.119043,0.0173 -0.23898,0.0331 -0.359216,0.0489 -0.119341,0.0158 -0.238682,0.0313 -0.359515,0.0453 l -0.359216,0.0399 c -0.119042,0.0122 -0.23898,0.023 -0.359216,0.034 -0.119639,0.0107 -0.23898,0.0218 -0.359514,0.031 -0.119043,0.009 -0.23898,0.0173 -0.359216,0.025 -0.119341,0.008 -0.239279,0.0143 -0.359515,0.0206 -0.119639,0.006 -0.238681,0.0125 -0.359216,0.0173 -0.119042,0.005 -0.239278,0.007 -0.359216,0.011 l -0.359514,0.008 c -0.119043,0.002 -0.23898,0.003 -0.359216,0.004 l -0.135154,0.001 -0.224361,-9e-4 -0.359216,-0.002 -0.359216,-0.005 -0.359514,-0.007 -0.359216,-0.01 -0.359514,-0.0116 -0.359217,-0.0146 -0.359216,-0.0167 -0.359514,-0.0182 -0.359216,-0.0215 -0.359514,-0.0233 -0.359216,-0.0253 -0.359217,-0.028 -0.359514,-0.0301 -0.359216,-0.0322 -0.359514,-0.0343 -0.359216,-0.037 -0.359216,-0.0388 -0.359515,-0.0408 -0.359216,-0.0435 -0.359216,-0.0456 -0.359514,-0.0471 -0.359216,-0.0501 -0.359515,-0.0522 -0.359216,-0.0537 -0.359216,-0.056 -0.359514,-0.0584 -0.359216,-0.0602 -0.359515,-0.0623 -0.359216,-0.065 -0.359216,-0.0665 -0.359514,-0.0686 -0.359216,-0.0707 -0.359515,-0.073 -0.359216,-0.0748 -0.359216,-0.0766 -0.359514,-0.079 -0.359216,-0.0811 -0.359514,-0.0826 -0.359216,-0.0849 -0.359217,-0.0871 -0.359514,-0.0888 -0.359216,-0.0903 -0.359514,-0.0936 -0.359217,-0.0948 -0.359216,-0.0963 -0.359514,-0.0987 -0.359216,-0.10046 -0.359216,-0.10254 -0.359514,-0.10403 -0.359216,-0.10672 -0.359515,-0.10821 -0.359216,-0.10969 -0.359216,-0.11209 -0.359514,-0.11387 -0.359216,-0.11536 -0.359515,-0.11715 -0.359216,-0.11953 -0.359216,-0.12103 -0.359514,-0.12311 -0.359216,-0.1243 -0.359515,-0.12699 -0.359216,-0.12818 -0.3592158,-0.12937 -0.3595144,-0.13235 -0.359216,-0.13354 -0.3595144,-0.13534 -0.3592161,-0.13682 -0.359216,-0.13891 -0.3595144,-0.1404 -0.3592161,-0.14219 -0.3595144,-0.14398 -0.359216,-0.14546 -0.359216,-0.14726 -0.3595144,-0.14875 -0.3592161,-0.15083 -0.3595144,-0.15233 -0.359216,-0.15381 -0.3592161,-0.15531 -0.3595144,-0.15768 -0.359216,-0.15859 -0.359216,-0.16007 -0.3595145,-0.16187 -0.359216,-0.16365 -0.3595144,-0.16514 -0.359216,-0.16663 -0.3592161,-0.16842 -0.3595144,-0.16962 0,-2.9e-4 0,0 0,0 0,0 z"/><path fill="#ca4638" d="m 105.63181,85.581924 c -0.26195,0.211644 -0.51973,0.425077 -0.77154,0.641192 l 0,-48.783942 c 0,-2.594278 0.26643,-5.126554 0.77154,-7.571787 0.1086,-0.524937 0.22884,-1.045104 0.35922,-1.561695 0.11188,-0.44326 0.23212,-0.882942 0.35951,-1.319644 0.11368,-0.389008 0.23361,-0.775333 0.35952,-1.158975 0.11486,-0.350554 0.2342,-0.699319 0.35921,-1.045104 0.11577,-0.320447 0.2351,-0.639403 0.35952,-0.955677 0.11636,-0.295705 0.2357,-0.58992 0.35921,-0.882049 0.11666,-0.275435 0.2363,-0.549082 0.35922,-0.821238 0.11666,-0.258444 0.23719,-0.5151 0.35952,-0.770265 0.11695,-0.243838 0.23719,-0.485291 0.35921,-0.726148 0.11725,-0.231318 0.23749,-0.460847 0.35952,-0.689482 0.11755,-0.220289 0.23748,-0.439087 0.35921,-0.656693 0.11785,-0.210749 0.23749,-0.420605 0.35952,-0.628672 0.11814,-0.202105 0.23719,-0.403316 0.35921,-0.603036 0.11785,-0.192864 0.23779,-0.384536 0.35922,-0.575016 0.11815,-0.185412 0.23838,-0.368737 0.35951,-0.551765 0.11845,-0.179152 0.23779,-0.357112 0.35922,-0.533879 0.11904,-0.173489 0.23779,-0.346977 0.35951,-0.518081 0.11785,-0.165738 0.23868,-0.328793 0.35922,-0.492147 0.11874,-0.160968 0.23838,-0.321043 0.35951,-0.479925 0.11905,-0.156497 0.23779,-0.313293 0.35922,-0.467703 0.11785,-0.14994 0.23928,-0.297792 0.35951,-0.445943 0.11875,-0.146362 0.23839,-0.292128 0.35922,-0.436404 0.11904,-0.142487 0.23838,-0.284378 0.35951,-0.424779 0.11845,-0.137121 0.23898,-0.272454 0.35922,-0.407787 0.11904,-0.13414 0.23838,-0.268877 0.35951,-0.401527 0.11845,-0.129669 0.23869,-0.257848 0.35892,-0.385729 0.11875,-0.12639 0.23868,-0.251886 0.35922,-0.376786 0.11934,-0.123111 0.23868,-0.246222 0.35951,-0.367843 0.11875,-0.119236 0.23898,-0.236982 0.35922,-0.354727 0.11964,-0.11715 0.23838,-0.235193 0.35951,-0.350852 0.11845,-0.112977 0.23928,-0.22327 0.35922,-0.334756 0.11934,-0.111187 0.23838,-0.222673 0.35951,-0.332072 0.11875,-0.1073125 0.23928,-0.2128364 0.35922,-0.3186584 0.11934,-0.1055239 0.23868,-0.2107497 0.35951,-0.3144851 0.11905,-0.1022449 0.23898,-0.2027013 0.35922,-0.3034558 0.11934,-0.09986 0.23898,-0.1997204 0.35951,-0.2983882 0.11905,-0.097177 0.23898,-0.1934605 0.35922,-0.2891474 0.11934,-0.095091 0.23898,-0.1895854 0.35951,-0.2831857 0.11905,-0.092408 0.23899,-0.1839216 0.35922,-0.2751372 0.11934,-0.090321 0.23898,-0.1803445 0.35922,-0.2691754 0.11904,-0.088235 0.23928,-0.175277 0.35951,-0.2620212 0.11934,-0.08585 0.23898,-0.1716999 0.35922,-0.2563575 0.11934,-0.083763 0.23928,-0.1663343 0.35951,-0.2489053 0.11934,-0.081975 0.23898,-0.1636515 0.35922,-0.2441358 0.11904,-0.07959 0.23928,-0.1579878 0.35951,-0.2363855 0.11934,-0.0781 0.23868,-0.1561992 0.35922,-0.2328084 0.11934,-0.075715 0.23928,-0.1496412 0.35951,-0.2241638 0.11964,-0.074224 0.23868,-0.1493431 0.35922,-0.2220771 0.11904,-0.072138 0.23957,-0.1418909 0.35951,-0.2125383 0.11994,-0.070647 0.23869,-0.1427852 0.35922,-0.2119421 0.11874,-0.068263 0.23987,-0.1338425 0.35951,-0.2009127 0.11994,-0.06707 0.23868,-0.1347368 0.35922,-0.2003166 0.11904,-0.064984 0.23928,-0.1275826 0.35922,-0.1913739 0.11963,-0.063493 0.23898,-0.1272845 0.35951,-0.1895853 l 0.35922,-0.1827293 0.35951,-0.1785559 c 0.11934,-0.058426 0.23898,-0.1174476 0.35922,-0.1746809 0.11934,-0.056935 0.23957,-0.1120819 0.35951,-0.1678247 0.11994,-0.055445 0.23868,-0.1126781 0.35922,-0.1669305 0.11904,-0.053954 0.23957,-0.1046296 0.35951,-0.1570935 0.11964,-0.052464 0.23898,-0.105822 0.35922,-0.1570935 0.11934,-0.050675 0.23928,-0.09986 0.35921,-0.1493432 l 0.35952,-0.1466603 c 0.11964,-0.047992 0.23898,-0.095985 0.35921,-0.1427852 0.11934,-0.046502 0.23958,-0.091216 0.35952,-0.1365253 0.11994,-0.04531 0.23868,-0.09211 0.35921,-0.1362272 0.11905,-0.043521 0.23988,-0.084061 0.35952,-0.1263902 0.11964,-0.042329 0.23898,-0.085254 0.35921,-0.1263902 0.11935,-0.041136 0.23958,-0.080484 0.35952,-0.1201303 l 0.35921,-0.1165533 c 0.11964,-0.038156 0.23928,-0.077205 0.35952,-0.1144666 0.11904,-0.036665 0.23958,-0.071244 0.35922,-0.1067163 0.11963,-0.035771 0.23927,-0.072436 0.35951,-0.1070143 0.11934,-0.03428 0.23928,-0.066176 0.35922,-0.099264 l 0.35921,-0.097475 c 0.11994,-0.031598 0.23928,-0.063791 0.35952,-0.094197 0.11934,-0.030107 0.23957,-0.058426 0.35921,-0.087639 0.11964,-0.029213 0.23928,-0.059618 0.35952,-0.087638 0.11934,-0.027722 0.23957,-0.053656 0.35921,-0.080186 l 0.35952,-0.0780996 c 0.11993,-0.0253377 0.23898,-0.0515696 0.35921,-0.0757149 0.11934,-0.0241453 0.23958,-0.0459059 0.35952,-0.0688588 0.11964,-0.0229529 0.23898,-0.0470982 0.35921,-0.0688588 l 0.35952,-0.0620028 0.35921,-0.0593199 c 0.11994,-0.0193759 0.23928,-0.0399441 0.35952,-0.0581276 0.11934,-0.0181835 0.23958,-0.0333861 0.35921,-0.0503772 0.11964,-0.016693 0.23928,-0.0342804 0.35922,-0.0500791 l 0.35951,-0.0450116 0.35922,-0.0411364 c 0.11994,-0.0134141 0.23928,-0.0289147 0.35952,-0.0411364 0.11934,-0.0122217 0.23957,-0.0211644 0.35921,-0.0321937 l 0.35952,-0.0315976 c 0.11963,-0.0101351 0.23927,-0.019972 0.35921,-0.0286167 0.11964,-0.008645 0.23958,-0.0155007 0.35922,-0.0229529 0.11994,-0.007452 0.23928,-0.0160969 0.35951,-0.0226549 0.11964,-0.006558 0.23958,-0.0110293 0.35952,-0.016395 l 0.35921,-0.0137121 c 0.11994,-0.004173 0.23928,-0.0104332 0.35952,-0.0134141 0.11934,-0.002981 0.23957,-0.002683 0.35921,-0.004471 0.11994,-0.001789 0.23958,-0.003875 0.35952,-0.004471 l 0.15842,-0.002087 0.20079,0 0.35952,0 0.35921,0 0.35922,0 0.35951,0 0.35922,0 0.35951,0 0.35922,0 0.35952,0 0.35921,0 0.35952,0 0.35921,0 0.35922,0 0.35951,0 0.35922,0 0.35951,0 0.35922,0 0.35951,0 0.35922,0 0.35921,0 0.35952,0 0.35922,0 0.35951,0 0.35922,0 0.35951,0 0.35951,0 0.35922,0 0.35952,0 0.35921,0 0.35922,0 0.35951,0 0.35922,0 0.35951,0 0.35922,0 0.35951,0 0.35922,0 0.35921,0 0.35952,0 0.35921,0 0.35952,0 0.35922,0 0.35951,0 0.35922,0 0.35951,0 0.35922,0 0.35921,0 0.35952,0 0.35921,0 0.35952,0 0.35921,0 0.35952,0 0.35921,0 0.35952,0 0.35921,0 0.35922,0 0.35951,0 0.35952,0 0.35922,0 0.35951,0 0.35922,0 0.35951,0 0.35922,0 0.35921,0 0.35952,0 0.35921,0 0.35952,0 0.35921,0 0.35952,0 0.35921,0 0.35952,0 0.35921,0 0.35922,0 0.35951,0 0.35922,0 0.35951,0 0.35922,0 0.35952,0 0.35921,0 0.35952,0 0.35921,0 0.35922,0 0.35951,0 0.35922,0 0.35951,0 0.35922,0 0.35951,0 0.35922,0 0.35951,0 0.35922,0 0.35951,0 0.35922,0 0.35951,0 0.35922,0 0.35952,0 0.35921,0 0.35952,0 0.35921,0 0.35922,0 0.35951,0 0.35922,0 0.35951,0 0.35922,0 0.35951,0 0.35922,0 0.35951,0 0.35922,0 0.35921,0 0.35952,0 0.35922,0 0.35951,0 0.35922,0 0.35951,0 0.35922,0 0.35951,0 0.35922,0 0.35921,0 0.35952,0 0.35921,0 0.35952,0 0.35951,0 0.35922,0 0.35951,0 0.35922,0 0.35921,0 0.35952,0 0.35921,0 0.35952,0 0.35922,0 0.35951,0 0.35922,0 0.35951,0 0.35922,0 0.35921,0 0.35952,0 0.35921,0 0.35952,0 0.35921,0 0.35952,0 0.35921,0 0.35922,0 0.35951,0 0.35922,0 0.35951,0 0.35922,0 0.35951,0 0.35922,0 0.35952,0 0.35921,0 0.35922,0 0.35951,0 0.35952,0 0.35921,0 0.30462,0 0,186.3119975 c 0,1.62012 -0.10383,3.2155 -0.30462,4.78107 -0.0967,0.75387 -0.21809,1.49969 -0.35921,2.23866 -0.10741,0.56249 -0.22705,1.12082 -0.35952,1.67407 -0.11158,0.46592 -0.23062,0.92885 -0.35951,1.38791 -0.11308,0.40272 -0.23302,0.80246 -0.35922,1.19951 -0.11427,0.3595 -0.2345,0.71602 -0.35921,1.07074 -0.11547,0.3282 -0.2354,0.65461 -0.35952,0.97863 -0.11606,0.30227 -0.2354,0.60244 -0.35922,0.90113 -0.11665,0.2814 -0.23629,0.5613 -0.35951,0.83912 -0.11666,0.26352 -0.23659,0.52494 -0.35922,0.78517 -0.11725,0.24861 -0.23689,0.49573 -0.35951,0.74105 -0.11725,0.2352 -0.23719,0.4692 -0.35922,0.70171 -0.11785,0.22416 -0.23719,0.44684 -0.35951,0.66832 -0.11815,0.21403 -0.23689,0.42716 -0.35922,0.63851 -0.11755,0.20359 -0.23778,0.40599 -0.35921,0.60721 -0.11785,0.19524 -0.23809,0.38811 -0.35952,0.58097 -0.11814,0.1878 -0.23778,0.3747 -0.35921,0.56011 -0.11875,0.18154 -0.23749,0.36338 -0.35952,0.54253 -0.11814,0.17379 -0.23838,0.34608 -0.35921,0.51778 -0.11815,0.16783 -0.23839,0.33416 -0.35952,0.5002 -0.11874,0.16305 -0.23808,0.32581 -0.35921,0.48678 -0.11845,0.15709 -0.23839,0.31269 -0.35922,0.468 -0.11845,0.15203 -0.23898,0.30256 -0.35951,0.4525 -0.11905,0.14815 -0.23779,0.296 -0.35922,0.44237 -0.11845,0.14278 -0.23898,0.28378 -0.35951,0.42507 -0.11875,0.13891 -0.23839,0.27633 -0.35922,0.41345 -0.11934,0.13534 -0.23838,0.27097 -0.35952,0.40481 -0.11844,0.13056 -0.23927,0.25874 -0.35921,0.38782 -0.11934,0.12788 -0.23838,0.25635 -0.35952,0.38274 -0.11874,0.12371 -0.23898,0.24533 -0.35921,0.36725 -0.11904,0.12073 -0.23838,0.24056 -0.35922,0.35979 -0.11904,0.11775 -0.23868,0.2346 -0.35951,0.35086 -0.11875,0.11417 -0.23898,0.22684 -0.35922,0.33952 -0.11964,0.11179 -0.23868,0.22446 -0.35951,0.33476 -0.11875,0.1082 -0.23928,0.21432 -0.35952,0.32104 -0.11964,0.10642 -0.23808,0.21373 -0.35921,0.31836 -0.11875,0.10284 -0.23958,0.203 -0.35952,0.30405 -0.11964,0.10105 -0.23838,0.203 -0.35921,0.30227 -0.11875,0.0978 -0.23958,0.19286 -0.35922,0.28914 -0.11964,0.096 -0.23868,0.19287 -0.35951,0.28736 -0.11875,0.093 -0.23928,0.18363 -0.35922,0.27514 -0.11964,0.0912 -0.23868,0.18303 -0.35951,0.27305 -0.11875,0.0885 -0.23928,0.17498 -0.35922,0.26202 -0.11964,0.0867 -0.23868,0.17468 -0.35951,0.25994 -0.11875,0.0841 -0.23928,0.16603 -0.35922,0.2489 -0.11964,0.0829 -0.23868,0.16663 -0.35952,0.24801 -0.11874,0.0799 -0.23927,0.15769 -0.35921,0.23639 -0.11964,0.0787 -0.23838,0.15888 -0.35922,0.23608 -0.11904,0.0763 -0.23987,0.14965 -0.35951,0.22447 -0.11964,0.0748 -0.23868,0.15053 -0.35922,0.22386 -0.11904,0.0724 -0.23957,0.14249 -0.35951,0.21373 -0.11964,0.0709 -0.23898,0.14249 -0.35922,0.21224 -0.11934,0.0689 -0.23928,0.13653 -0.35951,0.20419 l -0.35922,0.20062 -0.35951,0.19465 -0.35922,0.18929 c -0.11964,0.0623 -0.23898,0.1249 -0.35921,0.18601 -0.11934,0.0605 -0.23928,0.11923 -0.35952,0.17855 -0.11964,0.0593 -0.23868,0.11984 -0.35921,0.17767 -0.11905,0.0572 -0.23988,0.11178 -0.35952,0.16782 -0.11964,0.056 -0.23898,0.11327 -0.35922,0.16782 -0.11934,0.0543 -0.23987,0.10642 -0.35951,0.15948 l -0.35922,0.1568 -0.35951,0.15232 -0.35922,0.14696 c -0.11993,0.0486 -0.23928,0.0981 -0.35951,0.14547 -0.11904,0.0468 -0.23958,0.0906 -0.35922,0.13623 -0.11993,0.0456 -0.23898,0.0921 -0.35951,0.13652 -0.11934,0.0441 -0.23928,0.0862 -0.35922,0.12907 l -0.35951,0.12669 -0.35922,0.12282 c -0.11934,0.0399 -0.23957,0.0778 -0.35951,0.11655 -0.11994,0.0387 -0.23898,0.0793 -0.35922,0.11655 -0.11904,0.0373 -0.23958,0.0715 -0.35921,0.10761 l -0.35952,0.10672 -0.35921,0.10224 c -0.11964,0.0334 -0.23958,0.0653 -0.35952,0.0972 -0.11994,0.0322 -0.23868,0.0662 -0.35922,0.0972 -0.11934,0.0307 -0.23957,0.0581 -0.35951,0.0876 -0.11964,0.0295 -0.23928,0.0593 -0.35922,0.0876 l -0.35951,0.0829 -0.35922,0.0781 c -0.11993,0.0256 -0.23898,0.0534 -0.35921,0.0781 -0.11934,0.0245 -0.23988,0.0459 -0.35952,0.0692 l -0.35921,0.0686 -0.35952,0.0647 c -0.11934,0.0209 -0.23928,0.0399 -0.35921,0.0596 -0.11994,0.0197 -0.23928,0.0408 -0.35952,0.0593 -0.11934,0.0185 -0.23957,0.0343 -0.35921,0.0516 l -0.35952,0.0504 c -0.11964,0.0161 -0.23928,0.0325 -0.35921,0.0474 -0.11934,0.0149 -0.23958,0.0274 -0.35922,0.0411 -0.11994,0.0137 -0.23928,0.0286 -0.35951,0.0411 -0.11935,0.0125 -0.23928,0.0233 -0.35922,0.0346 l -0.35951,0.0322 c -0.11994,0.0101 -0.23899,0.0224 -0.35922,0.0313 -0.11934,0.009 -0.23958,0.0149 -0.35952,0.0227 l -0.35951,0.023 -0.35922,0.0191 c -0.11934,0.006 -0.23957,0.009 -0.35921,0.0134 -0.11994,0.004 -0.23958,0.0101 -0.35952,0.0137 -0.11934,0.003 -0.23927,0.004 -0.35921,0.007 l -0.35952,0.005 c -0.11188,8.9e-4 -0.22316,0.004 -0.33534,0.004 l -0.0239,0 -0.35952,0 -0.35921,0 -0.35952,0 -0.35921,0 -0.35922,0 -0.35951,0 -0.35922,0 -0.35951,0 -0.35922,0 -0.35952,0 -0.35921,0 -0.35952,0 -0.35921,0 -0.35922,0 -0.35951,0 -0.35922,0 -0.35951,0 -0.35922,0 -0.35951,0 -0.35922,0 -0.35921,0 -0.35952,0 -0.35922,0 -0.35951,0 -0.35951,0 -0.35922,0 -0.35951,0 -0.35922,0 -0.35952,0 -0.35921,0 -0.35922,0 -0.35951,0 -0.35922,0 -0.35951,0 -0.35922,0 -0.35951,0 -0.35922,0 -0.35921,0 -0.35952,0 -0.35921,0 -0.35952,0 -0.35922,0 -0.35951,0 -0.35922,0 -0.35951,0 -0.35922,0 -0.35921,0 -0.35952,0 -0.35921,0 -0.35952,0 -0.35921,0 -0.35952,0 -0.35921,0 -0.35952,0 -0.35951,0 -0.35922,0 -0.35921,0 -0.35952,0 -0.35921,0 -0.35952,0 -0.35922,0 -0.35951,0 -0.35922,0 -0.35921,0 -0.35952,0 -0.35921,0 -0.35952,0 -0.35921,0 -0.35952,0 -0.35921,0 -0.35952,0 -0.35921,0 -0.35952,0 -0.35921,0 -0.35952,0 -0.35921,0 -0.35922,0 -0.35951,0 -0.35922,0 -0.35952,0 -0.35921,0 -0.35952,0 -0.35921,0 -0.35952,0 -0.35921,0 -0.35952,0 -0.35921,0 -0.35952,0 -0.35921,0 -0.35922,0 -0.35951,0 -0.35922,0 -0.35951,0 -0.35922,0 -0.35951,0 -0.35922,0 -0.35951,0 -0.35922,0 -0.35922,0 -0.35951,0 -0.35922,0 -0.35951,0 -0.35922,0 -0.35951,0 -0.35922,0 -0.35951,0 -0.35922,0 -0.35951,0 -0.35922,0 -0.35951,0 -0.35922,0 -0.35922,0 -0.35951,0 -0.35922,0 -0.35951,0 -0.35922,0 -0.35951,0 -0.35922,0 -0.35951,0 -0.35922,0 -0.35951,0 -0.35922,0 -0.35951,0 -0.35922,0 -0.35892,0 -0.35951,0 -0.35922,0 -0.35951,0 -0.35922,0 -0.35951,0 -0.35922,0 -0.35951,0 -0.35922,0 -0.35951,0 -0.35922,0 -0.35951,0 -0.35922,0 -0.35921,0 -0.35952,0 -0.35921,0 -0.35952,0 -0.35921,0 -0.35952,0 -0.35922,0 -0.35921,0 -0.35952,0 -0.35921,0 -0.35952,0 -0.35951,0 -0.35922,0 -0.77154,0 0,-86.03418 c 0.25181,0.21582 0.50959,0.42896 0.77154,0.6406 0.11875,0.096 0.23869,0.19137 0.35922,0.28617 0.11904,0.0936 0.23868,0.1869 0.35951,0.2796 0.11934,0.0912 0.23839,0.18244 0.35952,0.27306 0.11844,0.0885 0.23898,0.17587 0.35921,0.26351 0.11875,0.0864 0.23898,0.17259 0.35952,0.25814 0.11904,0.0844 0.23838,0.16872 0.35921,0.25249 l 0.35922,0.24592 c 0.11874,0.0802 0.23898,0.15978 0.35952,0.23907 l 0.35921,0.2343 c 0.11904,0.0769 0.23868,0.15351 0.35952,0.22953 0.11844,0.0745 0.23897,0.14845 0.35921,0.22237 l 0.35952,0.2185 c 0.11934,0.0715 0.23868,0.14309 0.35921,0.21373 0.11875,0.0698 0.23898,0.13832 0.35922,0.20717 l 0.35951,0.2042 0.35922,0.19882 0.35951,0.19436 c 0.11934,0.0638 0.23839,0.12818 0.35922,0.19137 0.11874,0.0623 0.23928,0.12341 0.35951,0.18482 l 0.35922,0.18243 0.35951,0.17855 0.35922,0.17349 c 0.11964,0.0572 0.23868,0.11507 0.35951,0.1717 l 0.35922,0.16574 0.35951,0.16425 0.35892,0.15888 0.35922,0.1568 0.35951,0.15321 0.35922,0.14965 0.35951,0.14725 0.35922,0.14309 0.35951,0.14189 0.35922,0.13652 c 0.11964,0.0453 0.23868,0.0912 0.35951,0.13593 l 0.35922,0.13086 c 0.11964,0.0435 0.23868,0.0879 0.35951,0.13086 0.11875,0.0423 0.23958,0.0832 0.35922,0.1249 l 0.35951,0.1252 0.35922,0.12013 c 0.11964,0.04 0.23838,0.0808 0.35922,0.12013 0.11874,0.0391 0.23957,0.0766 0.35951,0.11506 l 0.35922,0.11507 0.35951,0.11029 0.35922,0.11 0.35951,0.10582 0.35922,0.10493 0.35951,0.10194 0.35922,0.10046 0.35951,0.0978 0.35922,0.0957 0.35951,0.0942 0.35922,0.0912 0.35922,0.0903 0.35951,0.087 0.35922,0.087 0.35951,0.0829 0.35922,0.0823 0.35951,0.0799 0.35922,0.0784 0.35951,0.0772 0.35922,0.0739 0.35921,0.0742 0.35952,0.0703 0.35921,0.0701 0.35952,0.068 0.35921,0.0662 0.35952,0.0656 0.35921,0.0623 0.35952,0.062 0.35921,0.0599 0.35952,0.0584 0.35922,0.0578 0.35951,0.0546 0.35922,0.0549 0.35921,0.0525 0.35952,0.051 0.35921,0.0507 0.35952,0.0474 0.35921,0.0474 0.35952,0.0459 0.35921,0.0438 0.35952,0.0441 0.35921,0.0411 0.35952,0.0402 0.35921,0.0403 0.35952,0.037 0.35921,0.037 0.35922,0.0358 0.35951,0.0337 0.35922,0.0337 0.35952,0.0316 0.35921,0.0304 0.35952,0.0304 0.35921,0.0277 0.35922,0.0271 0.35951,0.0274 0.35952,0.0242 0.35921,0.0241 0.35952,0.0239 0.35921,0.0209 0.35952,0.0209 0.35921,0.0206 0.35952,0.0176 0.35921,0.0179 0.35922,0.0176 0.35951,0.0146 0.35922,0.0149 0.35951,0.0143 0.35922,0.0119 0.35952,0.0119 0.35921,0.0116 0.35952,0.009 0.35921,0.009 0.35922,0.009 0.35951,0.006 0.35922,0.006 0.35951,0.006 0.35922,0.004 0.35951,0.003 0.35922,0.003 0.35921,0.001 0.35952,5.9e-4 0.35922,6e-4 0.35951,-8.9e-4 0.35922,-0.002 0.35951,-0.002 0.35951,-0.003 0.35922,-0.005 0.35952,-0.005 0.35921,-0.005 0.35922,-0.007 0.35951,-0.007 0.35922,-0.007 0.35951,-0.009 0.35922,-0.01 0.35951,-0.0101 0.35922,-0.0107 0.35921,-0.0125 0.35952,-0.0122 0.35921,-0.0125 0.35952,-0.0149 0.35922,-0.0149 0.35951,-0.0149 0.17543,-0.007 0.18379,-0.009 0.35951,-0.0173 0.35922,-0.0191 0.35921,-0.0197 0.35952,-0.0218 0.35921,-0.0221 0.35952,-0.0242 0.35921,-0.0244 0.35952,-0.0265 0.35921,-0.0268 0.35952,-0.0286 0.35921,-0.0292 0.35922,-0.0307 0.35951,-0.0316 0.35952,-0.0325 0.35922,-0.034 0.35951,-0.0343 0.35922,-0.0361 0.35951,-0.0361 0.35922,-0.0382 0.35921,-0.0385 0.35952,-0.0396 0.35921,-0.0405 0.35952,-0.0414 0.35921,-0.0423 0.35952,-0.0432 0.35921,-0.0441 0.35952,-0.045 0.35921,-0.0459 0.35922,-0.0462 0.35951,-0.048 0.35922,-0.0483 0.35951,-0.0492 0.35922,-0.0501 0.35952,-0.0507 0.35921,-0.0519 0.35952,-0.0522 0.35921,-0.0537 0.35922,-0.054 0.35951,-0.0546 0.35922,-0.0557 0.35951,-0.0563 0.35922,-0.0572 0.35951,-0.0575 0.35922,-0.0584 0.35951,-0.0596 0.35922,-0.0599 0.35951,-0.0608 0.35922,-0.0614 0.35951,-0.0623 0.35922,-0.0629 0.35952,-0.0638 0.35921,-0.0644 0.35952,-0.065 0.35921,-0.0656 0.35922,-0.0665 0.35951,-0.0674 0.35922,-0.068 0.35951,-0.0686 0.35922,-0.0692 0.35951,-0.0701 0.35922,-0.0706 0.35951,-0.0713 0.35922,-0.0721 0.35921,-0.0727 0.35952,-0.0736 0.35922,-0.0745 0.35951,-0.0748 0.35922,-0.0754 0.35951,-0.0769 0.35922,-0.0769 0.35951,-0.0781 0.35922,-0.0787 0.35921,-0.0796 0.35952,-0.0802 0.35921,-0.0814 0.35952,-0.0823 0.35951,-0.0832 0.35922,-0.0844 0.35951,-0.0853 0.35922,-0.0864 0.35742,-0.0882 0,-15.76241 -0.35742,0.17767 -0.35922,0.17736 -0.35951,0.17557 -0.35922,0.17409 -0.35951,0.17289 -0.35952,0.17081 -0.35921,0.16872 -0.35952,0.16752 -0.35921,0.16544 -0.35922,0.16395 -0.35951,0.16186 -0.35922,0.16038 -0.35951,0.15799 -0.35922,0.15619 -0.35951,0.15471 -0.35922,0.15263 -0.35952,0.15083 -0.35921,0.14904 -0.35922,0.14666 -0.35951,0.14488 -0.35922,0.14308 -0.35951,0.14129 -0.35922,0.13862 -0.35951,0.13712 -0.35922,0.13473 -0.35951,0.13295 -0.35922,0.13086 -0.35921,0.12908 -0.35952,0.12698 -0.35921,0.1249 -0.35952,0.12252 -0.35922,0.12072 -0.35951,0.11894 -0.35922,0.11656 -0.35951,0.11476 -0.35922,0.11268 -0.35951,0.11029 -0.35922,0.10851 -0.35951,0.10671 -0.35922,0.10433 -0.35951,0.10255 -0.35922,0.0999 -0.35951,0.0984 -0.35922,0.0963 -0.35921,0.0942 -0.35952,0.0921 -0.35921,0.09 -0.35952,0.0879 -0.35922,0.0864 -0.35951,0.0841 -0.35922,0.0817 -0.35951,0.0802 -0.35922,0.0781 -0.35921,0.076 -0.35952,0.0736 -0.35921,0.0721 -0.35952,0.0703 -0.35921,0.0677 -0.35952,0.0659 -0.35921,0.0641 -0.35952,0.0623 -0.35921,0.0596 -0.35922,0.0581 -0.35951,0.0566 -0.35922,0.054 -0.35951,0.0522 -0.35922,0.0507 -0.35952,0.0483 -0.35951,0.0462 -0.35922,0.0447 -0.35921,0.0429 -0.35952,0.0405 -0.35921,0.0387 -0.35952,0.0373 -0.35921,0.0346 -0.35952,0.0334 -0.35921,0.0316 -0.35952,0.0292 -0.21779,0.0173 -0.14142,0.01 -0.35922,0.0241 -0.35951,0.0239 -0.35922,0.0194 -0.35951,0.0182 -0.35922,0.0167 -0.35952,0.0116 -0.35921,0.0116 -0.35952,0.008 -0.35921,0.005 -0.35922,0.004 c -0.12053,6e-4 -0.23957,-8.9e-4 -0.35951,-0.001 l -0.35922,-0.001 -0.35951,-0.005 -0.35922,-0.008 -0.35951,-0.009 c -0.12054,-0.004 -0.23958,-0.01 -0.35922,-0.0146 -0.11964,-0.005 -0.24017,-0.009 -0.35921,-0.0146 l -0.35952,-0.02 -0.35922,-0.0215 -0.35951,-0.0247 -0.35951,-0.0286 c -0.11964,-0.01 -0.24018,-0.0182 -0.35922,-0.0292 -0.12053,-0.011 -0.23958,-0.0241 -0.35951,-0.0361 l -0.35922,-0.0361 -0.35952,-0.0417 -0.35921,-0.0435 -0.35922,-0.0474 -0.35951,-0.051 c -0.11994,-0.0176 -0.24017,-0.0346 -0.35922,-0.0534 -0.12053,-0.0188 -0.23987,-0.0394 -0.35951,-0.0593 -0.11964,-0.02 -0.24047,-0.0384 -0.35922,-0.0596 -0.12083,-0.0215 -0.23957,-0.045 -0.35951,-0.0674 -0.11964,-0.0224 -0.24047,-0.0435 -0.35922,-0.0671 -0.12083,-0.0238 -0.23928,-0.0501 -0.35921,-0.0751 -0.11994,-0.025 -0.24048,-0.0492 -0.35952,-0.0754 -0.12053,-0.0265 -0.23987,-0.0549 -0.35921,-0.0826 l -0.35952,-0.0844 c -0.12053,-0.0292 -0.23987,-0.0602 -0.35922,-0.0906 -0.12023,-0.0307 -0.24047,-0.0611 -0.35951,-0.093 -0.12053,-0.0322 -0.23987,-0.0659 -0.35922,-0.0993 -0.12023,-0.0337 -0.24047,-0.0674 -0.35951,-0.10254 -0.12053,-0.0355 -0.23988,-0.0721 -0.35922,-0.1088 -0.12023,-0.037 -0.24017,-0.0739 -0.35921,-0.11209 -0.12054,-0.0387 -0.24018,-0.0787 -0.35952,-0.11864 -0.11993,-0.0402 -0.24047,-0.0805 -0.35921,-0.12192 -0.12084,-0.042 -0.23988,-0.0858 -0.35952,-0.12937 -0.11993,-0.0438 -0.24047,-0.087 -0.35921,-0.13205 -0.12084,-0.0459 -0.23988,-0.0936 -0.35952,-0.141 -0.11994,-0.0474 -0.24047,-0.0942 -0.35921,-0.14278 -0.12113,-0.0498 -0.23988,-0.10195 -0.35952,-0.15322 -0.12023,-0.0516 -0.24077,-0.10254 -0.35951,-0.1556 -0.12084,-0.054 -0.23988,-0.11 -0.35922,-0.16544 -0.12023,-0.056 -0.24047,-0.11209 -0.35921,-0.16932 -0.12054,-0.0584 -0.24048,-0.11774 -0.35952,-0.17766 -0.12053,-0.0608 -0.24017,-0.12252 -0.35921,-0.18482 -0.12024,-0.0629 -0.24107,-0.12519 -0.35952,-0.18988 -0.12113,-0.0659 -0.23987,-0.13384 -0.35922,-0.20151 -0.12023,-0.0683 -0.24076,-0.13623 -0.35951,-0.20628 -0.12083,-0.0712 -0.24017,-0.14397 -0.35922,-0.21671 -0.12083,-0.0739 -0.24017,-0.14964 -0.35921,-0.22535 -0.12024,-0.0766 -0.24137,-0.15292 -0.35952,-0.23132 -0.12143,-0.0805 -0.23987,-0.16365 -0.35921,-0.24623 -0.12083,-0.0835 -0.24077,-0.16812 -0.35952,-0.25367 -0.12053,-0.0867 -0.24107,-0.17349 -0.35921,-0.26232 -0.12143,-0.0912 -0.24047,-0.18452 -0.35952,-0.27782 -0.12083,-0.0948 -0.24047,-0.19018 -0.35921,-0.28706 -0.12054,-0.0987 -0.24137,-0.19674 -0.35952,-0.29779 -0.12143,-0.10374 -0.24047,-0.20956 -0.35921,-0.31568 -0.12143,-0.10821 -0.24077,-0.2179 -0.35952,-0.32879 -0.12083,-0.11298 -0.24107,-0.22685 -0.35921,-0.34221 -0.12084,-0.11804 -0.24167,-0.23609 -0.35952,-0.35681 -0.12173,-0.12461 -0.24077,-0.25189 -0.35921,-0.37947 -0.12173,-0.13086 -0.24107,-0.26351 -0.35922,-0.39736 -0.12173,-0.13771 -0.24167,-0.27692 -0.35951,-0.41762 -0.12143,-0.14487 -0.24137,-0.29124 -0.35922,-0.43939 -0.12173,-0.15321 -0.24196,-0.30822 -0.35952,-0.46502 -0.12172,-0.16216 -0.24196,-0.32581 -0.35921,-0.49184 -0.12203,-0.1726 -0.24226,-0.34698 -0.35952,-0.52375 -0.12232,-0.18452 -0.24196,-0.37112 -0.35921,-0.55981 -0.12292,-0.19793 -0.24256,-0.39855 -0.35952,-0.60095 -0.12322,-0.21314 -0.24256,-0.42955 -0.35921,-0.64805 -0.12382,-0.23162 -0.24316,-0.46651 -0.35952,-0.70379 -0.12381,-0.25278 -0.24375,-0.50914 -0.35921,-0.76818 -0.12412,-0.27871 -0.24495,-0.56011 -0.35952,-0.84628 -0.1265,-0.31627 -0.24465,-0.63881 -0.35921,-0.96432 -0.1268,-0.36099 -0.24704,-0.72644 -0.35922,-1.09846 -0.12978,-0.43134 -0.25002,-0.86983 -0.35951,-1.31577 -0.13605,-0.55475 -0.2548,-1.12142 -0.35922,-1.69852 -0.15484,-0.85552 -0.27538,-1.73488 -0.35951,-2.6381 -0.0967,-1.04301 -0.1462,-2.11763 -0.1462,-3.22325 0,-1.10621 0.0495,-2.18142 0.1462,-3.22533 0.0841,-0.90351 0.20467,-1.78318 0.35951,-2.63929 0.10442,-0.5771 0.22317,-1.14467 0.35922,-1.69971 0.10949,-0.44594 0.22973,-0.88443 0.35951,-1.31607 0.11218,-0.37202 0.23242,-0.73807 0.35922,-1.09936 0.11456,-0.32551 0.23271,-0.64804 0.35921,-0.96461 0.11457,-0.28647 0.2354,-0.56787 0.35952,-0.84688 0.11546,-0.259336 0.2354,-0.515396 0.35921,-0.768176 0.11636,-0.237578 0.2357,-0.472771 0.35952,-0.704387 0.11665,-0.2185 0.23599,-0.434913 0.35921,-0.648346 0.11696,-0.202701 0.2366,-0.403316 0.35952,-0.601248 0.11725,-0.188989 0.23689,-0.375593 0.35921,-0.560111 0.11726,-0.176768 0.23749,-0.35115 0.35952,-0.524043 0.11725,-0.166036 0.23749,-0.329687 0.35921,-0.492146 0.11756,-0.156796 0.23779,-0.311505 0.35952,-0.465021 0.11785,-0.148151 0.23779,-0.294513 0.35922,-0.439385 0.11784,-0.140997 0.23778,-0.280205 0.35951,-0.417922 0.11815,-0.133843 0.23749,-0.267089 0.35922,-0.397951 0.11844,-0.127284 0.23748,-0.254867 0.35921,-0.379469 0.11785,-0.120726 0.23868,-0.239068 0.35952,-0.357111 0.11814,-0.115361 0.23838,-0.229232 0.35921,-0.342208 0.11875,-0.110591 0.23809,-0.220885 0.35952,-0.329091 0.11874,-0.105822 0.23778,-0.211943 0.35921,-0.315678 0.11815,-0.100754 0.23898,-0.199124 0.35952,-0.297792 0.11874,-0.09688 0.23838,-0.192566 0.35921,-0.287359 0.11905,-0.0936 0.23809,-0.186902 0.35952,-0.278118 0.11814,-0.08883 0.23868,-0.175575 0.35921,-0.262319 0.11875,-0.08585 0.23869,-0.169912 0.35952,-0.253675 0.11934,-0.08257 0.23778,-0.165738 0.35921,-0.246222 0.11815,-0.0787 0.23928,-0.155007 0.35952,-0.231616 0.11904,-0.07601 0.23838,-0.15143 0.35921,-0.225357 0.11905,-0.07303 0.23839,-0.145468 0.35922,-0.216711 0.11875,-0.07005 0.23928,-0.138016 0.35951,-0.206279 0.11935,-0.06767 0.23809,-0.135631 0.35922,-0.201508 0.11845,-0.06469 0.23928,-0.127285 0.35952,-0.190182 0.11904,-0.0623 0.23868,-0.124005 0.35921,-0.184816 0.11904,-0.05992 0.23898,-0.119236 0.35952,-0.177662 0.11874,-0.05753 0.23898,-0.113572 0.35921,-0.169613 0.11934,-0.05544 0.23838,-0.111486 0.35922,-0.16544 0.11874,-0.05306 0.23928,-0.104033 0.35951,-0.155603 0.11964,-0.05157 0.23839,-0.103437 0.35952,-0.153218 0.11874,-0.04889 0.23927,-0.09569 0.35921,-0.143083 0.11964,-0.0474 0.23868,-0.09509 0.35952,-0.140997 0.11874,-0.04501 0.23928,-0.08824 0.35921,-0.132054 0.11964,-0.04352 0.23868,-0.08734 0.35952,-0.129669 0.11874,-0.04144 0.23928,-0.08168 0.35921,-0.121919 0.11934,-0.03994 0.23898,-0.07989 0.35952,-0.11864 0.11904,-0.03816 0.23898,-0.07512 0.35921,-0.112082 0.11934,-0.03666 0.23869,-0.07303 0.35922,-0.108505 l 0.35951,-0.102543 c 0.11935,-0.03339 0.23869,-0.06737 0.35922,-0.09956 0.11904,-0.0319 0.23928,-0.0623 0.35951,-0.093 0.11935,-0.0304 0.23869,-0.06141 0.35922,-0.09062 l 0.35952,-0.08436 c 0.11934,-0.02772 0.23868,-0.05604 0.35921,-0.08257 0.11904,-0.02623 0.23958,-0.05067 0.35952,-0.07572 0.11993,-0.02504 0.23838,-0.05127 0.35921,-0.07512 0.11875,-0.02355 0.23958,-0.04471 0.35922,-0.06707 0.11994,-0.02236 0.23868,-0.04591 0.35951,-0.06737 0.11875,-0.02117 0.23958,-0.03965 0.35922,-0.05962 0.11964,-0.01997 0.23898,-0.04054 0.35951,-0.05932 l 0.35922,-0.05336 0.35951,-0.05127 0.35922,-0.0474 0.35921,-0.04352 0.35952,-0.04173 0.35922,-0.03607 c 0.11993,-0.01192 0.23898,-0.02504 0.35951,-0.03607 0.11904,-0.01103 0.23958,-0.01937 0.35922,-0.02921 l 0.35951,-0.02862 0.35951,-0.02474 0.35922,-0.02146 0.35952,-0.01997 c 0.11904,-0.006 0.23957,-0.0098 0.35921,-0.01461 0.11964,-0.0048 0.23868,-0.01073 0.35922,-0.01461 l 0.35951,-0.0092 0.35922,-0.0078 0.35951,-0.0054 0.35922,-0.0012 c 0.11994,-2.98e-4 0.23898,-0.0018 0.35951,-0.0012 l 0.35922,0.0045 0.35921,0.0054 0.35952,0.0078 0.35921,0.01162 0.35952,0.01163 0.35922,0.01669 0.35951,0.01818 0.35922,0.01938 0.35951,0.02385 0.35922,0.02415 0.14142,0.0095 0.21779,0.01729 0.35952,0.02862 0.35921,0.031 0.35952,0.03279 0.35921,0.03428 0.35952,0.03666 0.35921,0.03845 0.35952,0.03994 0.35921,0.04203 0.35922,0.04412 0.35951,0.04561 0.35952,0.04769 0.35922,0.05008 0.35951,0.05127 0.35922,0.05336 0.35951,0.05574 0.35922,0.05753 0.35921,0.05902 0.35952,0.0617 0.35921,0.06349 0.35952,0.06528 0.35921,0.06707 0.35952,0.06946 0.35921,0.07124 0.35952,0.07333 0.35921,0.07542 0.35922,0.0775 0.35951,0.07959 0.35922,0.08108 0.35951,0.08347 0.35922,0.08585 0.35952,0.08764 0.35921,0.08943 0.35952,0.09181 0.35921,0.0939 0.35922,0.09569 0.35951,0.09807 0.35922,0.100158 0.35951,0.101947 0.35922,0.104332 0.35951,0.106418 0.35922,0.108505 0.35951,0.110293 0.35922,0.11238 0.35951,0.114765 0.35922,0.116851 0.35951,0.118938 0.35922,0.121025 0.35952,0.122813 0.35921,0.1249 0.35952,0.127582 0.35921,0.129371 0.35922,0.13116 0.35951,0.133544 0.35922,0.135631 0.35951,0.137718 0.35922,0.139506 0.35951,0.141593 0.35922,0.143679 0.35951,0.145767 0.35922,0.147852 0.35921,0.149939 0.35952,0.151728 0.35922,0.153815 0.35951,0.155603 0.35922,0.15769 0.35951,0.15918 0.35922,0.161565 0.35951,0.163353 0.35922,0.165142 0.35921,0.16693 0.35952,0.169018 0.35921,0.170507 0.35952,0.172296 0.35951,0.174085 0.35922,0.175873 0.35951,0.177364 0.35922,0.179152 0.35742,0.17945 0,-15.773738 -0.35742,-0.08823 -0.35922,-0.08645 -0.35951,-0.08525 -0.35922,-0.08436 -0.35951,-0.08317 -0.35952,-0.08197 -0.35921,-0.08138 -0.35952,-0.08048 -0.35921,-0.07929 -0.35922,-0.07899 -0.35951,-0.0778 -0.35922,-0.07691 -0.35951,-0.07691 -0.35922,-0.07542 -0.35951,-0.07482 -0.35922,-0.07422 -0.35952,-0.07363 -0.35921,-0.07273 -0.35922,-0.07214 -0.35951,-0.07124 -0.35922,-0.07035 -0.35951,-0.07035 -0.35922,-0.06916 -0.35951,-0.06856 -0.35922,-0.06767 -0.35951,-0.06707 -0.35922,-0.06647 -0.35921,-0.06558 -0.35952,-0.06498 -0.35921,-0.06439 -0.35952,-0.06349 -0.35922,-0.0629 -0.35951,-0.0623 -0.35922,-0.06111 -0.35951,-0.06081 -0.35922,-0.05992 -0.35951,-0.05932 -0.35922,-0.05843 -0.35951,-0.05753 -0.35922,-0.05723 -0.35951,-0.05604 -0.35922,-0.05574 -0.35951,-0.05455 -0.35922,-0.05395 -0.35921,-0.05336 -0.35952,-0.05217 -0.35921,-0.05157 -0.35952,-0.05068 -0.35922,-0.04978 -0.35951,-0.04918 -0.35922,-0.04829 -0.35951,-0.04769 -0.35922,-0.0462 -0.35921,-0.04591 -0.35952,-0.04501 -0.35921,-0.04412 -0.35952,-0.04292 -0.35921,-0.04203 -0.35952,-0.04144 -0.35921,-0.04024 -0.35952,-0.03965 -0.35921,-0.03816 -0.35922,-0.03786 -0.35951,-0.03607 -0.35922,-0.03577 -0.35951,-0.03458 -0.35922,-0.03368 -0.35952,-0.03219 -0.35951,-0.0316 -0.35922,-0.0304 -0.35921,-0.02921 -0.35952,-0.02832 -0.35921,-0.02653 -0.35952,-0.02653 -0.35921,-0.02415 -0.35952,-0.02415 -0.35921,-0.02176 -0.35952,-0.02146 -0.35921,-0.01967 -0.35922,-0.01878 -0.35951,-0.01729 -0.18379,-0.0086 -0.17543,-0.0075 -0.35951,-0.0149 -0.35922,-0.01491 -0.35952,-0.0149 -0.35921,-0.01252 -0.35952,-0.01222 -0.35921,-0.01252 -0.35922,-0.01073 -0.35951,-0.01014 -0.35922,-0.0098 -0.35951,-0.0092 -0.35922,-0.0075 -0.35951,-0.0072 -0.35922,-0.0075 -0.35921,-0.0048 -0.35952,-0.0048 -0.35922,-0.0048 -0.35951,-0.003 -0.35951,-0.0018 -0.35922,-0.0021 -0.35951,-8.94e-4 -0.35922,5.96e-4 -0.35952,5.97e-4 -0.35921,0.0012 -0.35922,0.0033 -0.35951,0.0036 -0.35922,0.0036 -0.35951,0.0063 -0.35922,0.006 -0.35951,0.0063 -0.35922,0.0089 -0.35921,0.0089 -0.35952,0.0089 -0.35921,0.01162 -0.35952,0.01192 -0.35922,0.01192 -0.35951,0.01461 -0.35922,0.0149 -0.35951,0.01461 -0.35922,0.01759 -0.35921,0.01789 -0.35952,0.01759 -0.35921,0.02057 -0.35952,0.02087 -0.35921,0.02087 -0.35952,0.02385 -0.35921,0.02414 -0.35952,0.02415 -0.35951,0.02742 -0.35922,0.02713 -0.35921,0.02802 -0.35952,0.03041 -0.35921,0.03011 -0.35952,0.03189 -0.35922,0.03369 -0.35951,0.03368 -0.35922,0.03577 -0.35921,0.03726 -0.35952,0.03696 -0.35921,0.04024 -0.35952,0.04024 -0.35921,0.04114 -0.35952,0.04412 -0.35921,0.04382 -0.35952,0.0462 -0.35921,0.0474 -0.35952,0.0474 -0.35921,0.05068 -0.35952,0.05097 -0.35921,0.05246 -0.35922,0.05485 -0.35951,0.05455 -0.35922,0.05783 -0.35952,0.05872 -0.35921,0.05992 -0.35952,0.062 -0.35921,0.0623 -0.35952,0.06558 -0.35921,0.06647 -0.35952,0.06796 -0.35921,0.07005 -0.35952,0.07035 -0.35921,0.07422 -0.35922,0.07422 -0.35951,0.07691 -0.35922,0.0784 -0.35951,0.07989 -0.35922,0.08257 -0.35951,0.08287 -0.35922,0.08704 -0.35951,0.08704 -0.35922,0.09032 -0.35922,0.09151 -0.35951,0.0942 -0.35922,0.09598 -0.35951,0.09777 -0.35922,0.100457 -0.35951,0.101947 -0.35922,0.105225 -0.35951,0.105822 -0.35922,0.109996 -0.35951,0.110591 -0.35922,0.115063 c -0.11994,0.03845 -0.24077,0.07601 -0.35951,0.115063 l -0.35922,0.12013 c -0.11964,0.03994 -0.24047,0.07929 -0.35922,0.12013 l -0.35951,0.125198 -0.35922,0.125198 c -0.12083,0.04292 -0.23987,0.08734 -0.35951,0.130862 -0.11994,0.04352 -0.24047,0.08645 -0.35922,0.130861 l -0.35951,0.136227 c -0.11994,0.04561 -0.24047,0.09032 -0.35922,0.136526 l -0.35951,0.141891 -0.35922,0.143083 -0.35951,0.147554 -0.35922,0.149642 -0.35951,0.153218 -0.35922,0.156795 -0.35892,0.159181 -0.35951,0.164247 -0.35922,0.165738 c -0.12083,0.05664 -0.23987,0.114467 -0.35951,0.1717 l -0.35922,0.173787 -0.35951,0.178556 -0.35922,0.182431 c -0.12023,0.06171 -0.24077,0.122813 -0.35951,0.185114 -0.12083,0.0632 -0.23988,0.127583 -0.35922,0.191672 l -0.35951,0.194355 -0.35922,0.198826 c -0.12083,0.06767 -0.24017,0.135929 -0.35951,0.20449 -0.12024,0.06886 -0.24047,0.137419 -0.35922,0.207172 -0.12053,0.07065 -0.23987,0.142189 -0.35921,0.213731 -0.12084,0.07244 -0.24048,0.145468 -0.35952,0.218798 -0.12024,0.07393 -0.24077,0.147853 -0.35921,0.222375 -0.12084,0.07601 -0.24048,0.152921 -0.35952,0.22953 l -0.35921,0.234597 c -0.12054,0.07959 -0.24078,0.158584 -0.35952,0.239068 L 107.788,83.96866 c -0.12083,0.08376 -0.24017,0.168123 -0.35921,0.252483 -0.12054,0.08555 -0.24077,0.1717 -0.35952,0.258444 -0.12023,0.08764 -0.24077,0.174979 -0.35921,0.263512 -0.12113,0.09062 -0.24018,0.181835 -0.35952,0.273348 -0.12083,0.09271 -0.24047,0.186008 -0.35951,0.279609 -0.12053,0.09479 -0.24047,0.190181 -0.35922,0.286166 l 0,-2.98e-4 0,0 0,0 0,0 z"/></g></g></svg>